<?xml version="1.0" standalone="yes"?>

<svg version="1.1" viewBox="0.0 0.0 765.7559055118111 286.9238845144357" fill="none" stroke="none" stroke-linecap="square" stroke-miterlimit="10" xmlns="http://www.w3.org/2000/svg" xmlns:xlink="http://www.w3.org/1999/xlink"><clipPath id="p.0"><path d="m0 0l765.7559 0l0 286.9239l-765.7559 0l0 -286.9239z" clip-rule="nonzero"></path></clipPath><g clip-path="url(#p.0)"><path fill="#000000" fill-opacity="0.0" d="m0 0l765.7559 0l0 286.9239l-765.7559 0z" fill-rule="nonzero"></path><path stroke="#000000" stroke-width="4.0" stroke-linecap="butt" d="m2.8766403 1.535433l0 283.8504" fill-rule="nonzero"></path><path stroke="#000000" stroke-width="4.0" stroke-linecap="butt" d="m382.87665 1.535433l0 283.8504" fill-rule="nonzero"></path><path stroke="#000000" stroke-width="4.0" stroke-linecap="butt" d="m762.87665 1.535433l0 283.8504" fill-rule="nonzero"></path><path stroke="#000000" stroke-width="4.0" stroke-linecap="butt" d="m0.87664044 3.535433l764.0 0" fill-rule="nonzero"></path><path stroke="#000000" stroke-width="4.0" stroke-linecap="butt" d="m0.87664044 283.38583l764.0 0" fill-rule="nonzero"></path><path fill="#000000" fill-opacity="0.0" d="m24.08399 242.4147l0 -204.15749" fill-rule="nonzero"></path><path stroke="#000000" stroke-width="2.0" stroke-linejoin="round" stroke-linecap="butt" d="m24.08399 242.4147l0 -192.15749" fill-rule="evenodd"></path><path fill="#000000" stroke="#000000" stroke-width="2.0" stroke-linecap="butt" d="m27.387455 50.257217l-3.303465 -9.076195l-3.303465 9.076195z" fill-rule="evenodd"></path><path fill="#000000" fill-opacity="0.0" d="m24.08399 242.4147l317.10236 0" fill-rule="nonzero"></path><path stroke="#000000" stroke-width="2.0" stroke-linejoin="round" stroke-linecap="butt" d="m24.08399 242.4147l305.10236 0" fill-rule="evenodd"></path><path fill="#000000" stroke="#000000" stroke-width="2.0" stroke-linecap="butt" d="m329.18634 245.71817l9.076202 -3.3034668l-9.076202 -3.3034668z" fill-rule="evenodd"></path><path fill="#000000" fill-opacity="0.0" d="m181.14174 54.509186l0 188.8189" fill-rule="nonzero"></path><path stroke="#000000" stroke-width="1.0" stroke-linejoin="round" stroke-linecap="butt" stroke-dasharray="4.0,3.0" d="m181.14174 54.509186l0 188.8189" fill-rule="nonzero"></path><path fill="#000000" fill-opacity="0.0" d="m160.05249 239.58005l81.70079 0l0 21.669281l-81.70079 0z" fill-rule="nonzero"></path><path fill="#000000" d="m173.97437 266.50006l0 -12.000015l-4.46875 0l0 -1.59375l10.765625 0l0 1.59375l-4.5 0l0 12.000015l-1.796875 0z" fill-rule="nonzero"></path><path fill="#000000" d="m183.54222 272.56256l0.15625 0.921875q-0.453125 0.09375 -0.796875 0.09375q-0.578125 0 -0.890625 -0.171875q-0.3125 -0.1875 -0.453125 -0.484375q-0.125 -0.296875 -0.125 -1.25l0 -3.578125l-0.765625 0l0 -0.8125l0.765625 0l0 -1.546875l1.046875 -0.625l0 2.171875l1.0625 0l0 0.8125l-1.0625 0l0 3.640625q0 0.453125 0.046875 0.578125q0.0625 0.125 0.1875 0.203125q0.125 0.078125 0.359375 0.078125q0.1875 0 0.46875 -0.03125zm1.1429901 0.9375l0 -6.21875l0.953125 0l0 0.9375q0.359375 -0.65625 0.65625 -0.859375q0.3125 -0.21875 0.6875 -0.21875q0.53125 0 1.078125 0.328125l-0.359375 0.984375q-0.390625 -0.234375 -0.765625 -0.234375q-0.359375 0 -0.640625 0.21875q-0.265625 0.203125 -0.375 0.578125q-0.1875 0.5625 -0.1875 1.21875l0 3.265625l-1.046875 0z" fill-rule="nonzero"></path><path fill="#000000" fill-opacity="0.0" d="m341.11154 219.70735l38.834656 0l0 36.125977l-38.834656 0z" fill-rule="nonzero"></path><path fill="#000000" d="m355.03342 246.62735l0 -12.0l-4.46875 0l0 -1.59375l10.765625 0l0 1.59375l-4.5 0l0 12.0l-1.796875 0z" fill-rule="nonzero"></path><path fill="#000000" fill-opacity="0.0" d="m7.6902885 3.535433l48.787403 0l0 28.220472l-48.787403 0z" fill-rule="nonzero"></path><path fill="#000000" d="m17.549664 26.080431l1.6875 -0.140625q0.125 1.015625 0.5625 1.671875q0.4375 0.65625 1.359375 1.0625q0.9375 0.40625 2.09375 0.40625q1.03125 0 1.8125 -0.3125q0.796875 -0.3125 1.1875 -0.84375q0.390625 -0.53125 0.390625 -1.15625q0 -0.640625 -0.375 -1.109375q-0.375 -0.484375 -1.234375 -0.8125q-0.546875 -0.21875 -2.421875 -0.65625q-1.875 -0.453125 -2.625 -0.859375q-0.96875 -0.515625 -1.453125 -1.265625q-0.46875 -0.75 -0.46875 -1.6875q0 -1.03125 0.578125 -1.921875q0.59375 -0.90625 1.703125 -1.359375q1.125 -0.46875 2.5 -0.46875q1.515625 0 2.671875 0.484375q1.15625 0.484375 1.765625 1.4375q0.625 0.9375 0.671875 2.140625l-1.71875 0.125q-0.140625 -1.28125 -0.953125 -1.9375q-0.796875 -0.671875 -2.359375 -0.671875q-1.625 0 -2.375 0.609375q-0.75 0.59375 -0.75 1.4375q0 0.734375 0.53125 1.203125q0.515625 0.46875 2.703125 0.96875q2.203125 0.5 3.015625 0.875q1.1875 0.546875 1.75 1.390625q0.578125 0.828125 0.578125 1.921875q0 1.09375 -0.625 2.0625q-0.625 0.953125 -1.796875 1.484375q-1.15625 0.53125 -2.609375 0.53125q-1.84375 0 -3.09375 -0.53125q-1.25 -0.546875 -1.96875 -1.625q-0.703125 -1.078125 -0.734375 -2.453125z" fill-rule="nonzero"></path><path fill="#000000" fill-opacity="0.0" d="m319.8189 3.535433l56.0 0l0 38.992123l-56.0 0z" fill-rule="nonzero"></path><path fill="#000000" d="m334.42828 40.62231q-1.734375 -2.203125 -2.953125 -5.15625q-1.203125 -2.953125 -1.203125 -6.109377q0 -2.796875 0.90625 -5.34375q1.046875 -2.96875 3.25 -5.90625l1.515625 0q-1.421875 2.4375 -1.875 3.46875q-0.71875 1.625 -1.125 3.375q-0.5 2.203125 -0.5 4.40625q0 5.640627 3.5 11.265627l-1.515625 0zm12.0859375 -6.578125q-1.171875 0.984375 -2.265625 1.40625q-1.078125 0.40625 -2.3125 0.40625q-2.046875 0 -3.15625 -1.0q-1.09375 -1.0 -1.09375 -2.5625q0 -0.9218769 0.40625 -1.6718769q0.421875 -0.75 1.09375 -1.203125q0.671875 -0.46875 1.515625 -0.703125q0.625 -0.15625 1.875 -0.3125q2.5625 -0.3125 3.765625 -0.734375q0.015625 -0.421875 0.015625 -0.546875q0 -1.28125 -0.609375 -1.8125q-0.796875 -0.71875 -2.390625 -0.71875q-1.5 0 -2.203125 0.53125q-0.703125 0.515625 -1.046875 1.84375l-2.0625 -0.28125q0.28125 -1.328125 0.921875 -2.140625q0.640625 -0.8125 1.859375 -1.25q1.21875 -0.453125 2.828125 -0.453125q1.59375 0 2.59375 0.375q1.0 0.375 1.46875 0.953125q0.46875 0.5625 0.65625 1.4375q0.09375 0.53125 0.09375 1.9375l0 2.8125q0 2.937502 0.140625 3.718752q0.140625 0.78125 0.53125 1.5l-2.203125 0q-0.328125 -0.65625 -0.421875 -1.53125zm-0.171875 -4.718752q-1.15625 0.46875 -3.453125 0.796875q-1.296875 0.1875 -1.84375 0.421875q-0.53125 0.234375 -0.828125 0.6875q-0.28125 0.453125 -0.28125 1.0000019q0 0.84375 0.625 1.40625q0.640625 0.5625 1.875 0.5625q1.21875 0 2.171875 -0.53125q0.953125 -0.53125 1.390625 -1.453125q0.34375 -0.7187519 0.34375 -2.109377l0 -0.78125zm6.7851562 11.296877l-1.515625 0q3.5 -5.625 3.5 -11.265627q0 -2.203125 -0.5 -4.359375q-0.390625 -1.765625 -1.109375 -3.375q-0.453125 -1.0625 -1.890625 -3.515625l1.515625 0q2.203125 2.9375 3.25 5.90625q0.90625 2.546875 0.90625 5.34375q0 3.156252 -1.21875 6.109377q-1.203125 2.953125 -2.9375 5.15625z" fill-rule="nonzero"></path><path fill="#000000" fill-opacity="0.0" d="m409.66666 241.58136l0 -204.15747" fill-rule="nonzero"></path><path stroke="#000000" stroke-width="2.0" stroke-linejoin="round" stroke-linecap="butt" d="m409.66666 241.58136l0 -192.15747" fill-rule="evenodd"></path><path fill="#000000" stroke="#000000" stroke-width="2.0" stroke-linecap="butt" d="m412.97012 49.423885l-3.3034668 -9.076195l-3.3034668 9.076195z" fill-rule="evenodd"></path><path fill="#000000" fill-opacity="0.0" d="m409.66666 241.58136l317.1024 0" fill-rule="nonzero"></path><path stroke="#000000" stroke-width="2.0" stroke-linejoin="round" stroke-linecap="butt" d="m409.66666 241.58136l305.1024 0" fill-rule="evenodd"></path><path fill="#000000" stroke="#000000" stroke-width="2.0" stroke-linecap="butt" d="m714.76904 244.88483l9.076172 -3.3034668l-9.076172 -3.3034668z" fill-rule="evenodd"></path><path fill="#000000" fill-opacity="0.0" d="m566.7244 53.675854l0 188.8189" fill-rule="nonzero"></path><path stroke="#000000" stroke-width="1.0" stroke-linejoin="round" stroke-linecap="butt" stroke-dasharray="4.0,3.0" d="m566.7244 53.675854l0 188.8189" fill-rule="nonzero"></path><path fill="#000000" fill-opacity="0.0" d="m545.6352 238.74672l45.165344 0l0 21.669296l-45.165344 0z" fill-rule="nonzero"></path><path fill="#000000" d="m559.55707 265.66672l0 -12.0l-4.46875 0l0 -1.59375l10.765625 0l0 1.59375l-4.5 0l0 12.0l-1.796875 0z" fill-rule="nonzero"></path><path fill="#000000" d="m569.1249 271.72922l0.15625 0.921875q-0.453125 0.09375 -0.796875 0.09375q-0.578125 0 -0.890625 -0.171875q-0.3125 -0.1875 -0.453125 -0.484375q-0.125 -0.296875 -0.125 -1.25l0 -3.578125l-0.765625 0l0 -0.8125l0.765625 0l0 -1.546875l1.046875 -0.625l0 2.171875l1.0625 0l0 0.8125l-1.0625 0l0 3.640625q0 0.453125 0.046875 0.578125q0.0625 0.125 0.1875 0.203125q0.125 0.078125 0.359375 0.078125q0.1875 0 0.46875 -0.03125zm1.1430054 0.9375l0 -6.21875l0.953125 0l0 0.9375q0.359375 -0.65625 0.65625 -0.859375q0.3125 -0.21875 0.6875 -0.21875q0.53125 0 1.078125 0.328125l-0.359375 0.984375q-0.390625 -0.234375 -0.765625 -0.234375q-0.359375 0 -0.640625 0.21875q-0.265625 0.203125 -0.375 0.578125q-0.1875 0.5625 -0.1875 1.21875l0 3.265625l-1.046875 0z" fill-rule="nonzero"></path><path fill="#000000" fill-opacity="0.0" d="m726.76904 218.87534l38.834656 0l0 36.125977l-38.834656 0z" fill-rule="nonzero"></path><path fill="#000000" d="m740.6909 245.79533l0 -12.0l-4.46875 0l0 -1.59375l10.765625 0l0 1.59375l-4.5 0l0 12.0l-1.796875 0z" fill-rule="nonzero"></path><path fill="#000000" fill-opacity="0.0" d="m392.53018 3.5367453l48.787415 0l0 28.220472l-48.787415 0z" fill-rule="nonzero"></path><path fill="#000000" d="m412.70206 25.691118l1.796875 0.453125q-0.5625 2.21875 -2.03125 3.390625q-1.46875 1.15625 -3.59375 1.15625q-2.203125 0 -3.578125 -0.890625q-1.375 -0.90625 -2.09375 -2.59375q-0.71875 -1.703125 -0.71875 -3.65625q0 -2.125 0.796875 -3.703125q0.8125 -1.578125 2.3125 -2.390625q1.5 -0.828125 3.296875 -0.828125q2.046875 0 3.4375 1.046875q1.390625 1.03125 1.9375 2.90625l-1.765625 0.421875q-0.46875 -1.484375 -1.375 -2.15625q-0.90625 -0.6875 -2.265625 -0.6875q-1.5625 0 -2.625 0.75q-1.046875 0.75 -1.484375 2.03125q-0.421875 1.265625 -0.421875 2.609375q0 1.734375 0.5 3.03125q0.515625 1.28125 1.578125 1.921875q1.078125 0.640625 2.3125 0.640625q1.515625 0 2.5625 -0.859375q1.046875 -0.875 1.421875 -2.59375z" fill-rule="nonzero"></path><path fill="#000000" d="m418.37814 37.456745l-3.328125 -8.593752l1.234375 0l2.234375 6.250002q0.265625 0.75 0.453125 1.40625q0.203125 -0.703125 0.46875 -1.40625l2.3125 -6.250002l1.15625 0l-3.359375 8.593752l-1.171875 0z" fill-rule="nonzero"></path><path fill="#000000" fill-opacity="0.0" d="m708.2493 3.5367453l75.87402 0l0 48.094486l-75.87402 0z" fill-rule="nonzero"></path><path fill="#000000" d="m722.8587 40.623623q-1.734375 -2.203125 -2.953125 -5.15625q-1.203125 -2.953125 -1.203125 -6.109377q0 -2.796875 0.90625 -5.34375q1.046875 -2.96875 3.25 -5.90625l1.515625 0q-1.421875 2.4375 -1.875 3.46875q-0.71875 1.625 -1.125 3.375q-0.5 2.203125 -0.5 4.40625q0 5.640627 3.5 11.265627l-1.515625 0zm5.9140625 -5.046875l-1.953125 0l0 -17.187502l2.109375 0l0 6.140625q1.328125 -1.6875 3.40625 -1.6875q1.140625 0 2.171875 0.46875q1.03125 0.46875 1.6875 1.3125q0.65625 0.828125 1.03125 2.015625q0.375 1.171875 0.375 2.53125q0 3.187502 -1.578125 4.937502q-1.578125 1.75 -3.796875 1.75q-2.203125 0 -3.453125 -1.84375l0 1.5625zm-0.03125 -6.312502q0 2.234375 0.609375 3.234377q1.0 1.625 2.703125 1.625q1.375 0 2.375 -1.203125q1.015625 -1.2031269 1.015625 -3.578127q0 -2.4375 -0.96875 -3.59375q-0.953125 -1.171875 -2.328125 -1.171875q-1.390625 0 -2.40625 1.203125q-1.0 1.203125 -1.0 3.484375zm12.816406 11.359377l-1.515625 0q3.5 -5.625 3.5 -11.265627q0 -2.203125 -0.5 -4.359375q-0.390625 -1.765625 -1.109375 -3.375q-0.453125 -1.0625 -1.890625 -3.515625l1.515625 0q2.203125 2.9375 3.25 5.90625q0.90625 2.546875 0.90625 5.34375q0 3.156252 -1.21875 6.109377q-1.203125 2.953125 -2.9375 5.15625z" fill-rule="nonzero"></path><path fill="#000000" fill-opacity="0.0" d="m181.14174 179.04462c0 15.501602 -5.826599 34.242203 -18.97113 42.45932c-23.297623 14.564178 -53.829124 13.551178 -81.30447 13.551178" fill-rule="evenodd"></path><path stroke="#0000ff" stroke-width="3.0" stroke-linejoin="round" stroke-linecap="butt" d="m181.14174 179.04462c0 15.501602 -5.826599 34.242203 -18.97113 42.45932c-23.297623 14.564178 -53.829124 13.551178 -81.30447 13.551178" fill-rule="evenodd"></path><path fill="#000000" fill-opacity="0.0" d="m181.14305 134.79921c7.396805 -33.258842 57.170013 -46.073486 91.24147 -46.073486" fill-rule="evenodd"></path><path stroke="#0000ff" stroke-width="3.0" stroke-linejoin="round" stroke-linecap="butt" d="m181.14305 134.79921c7.396805 -33.258842 57.170013 -46.073486 91.24147 -46.073486" fill-rule="evenodd"></path><path fill="#000000" fill-opacity="0.0" d="m566.7257 156.479c-1.8960571 18.91661 -11.000916 41.18289 -28.005249 49.685043c-26.213745 13.106888 -57.41913 14.45668 -86.72702 14.45668" fill-rule="evenodd"></path><path stroke="#ff0000" stroke-width="3.0" stroke-linejoin="round" stroke-linecap="butt" d="m566.7257 156.479c-1.8960571 18.91661 -11.000916 41.18289 -28.005249 49.685043c-26.213745 13.106888 -57.41913 14.45668 -86.72702 14.45668" fill-rule="evenodd"></path><path fill="#000000" fill-opacity="0.0" d="m566.7257 182.0748c1.3300171 17.782333 16.679688 35.839462 33.969543 42.45932c22.318237 8.54509 47.67743 7.2257233 71.71411 7.2257233" fill-rule="evenodd"></path><path stroke="#ff0000" stroke-width="3.0" stroke-linejoin="round" stroke-linecap="butt" d="m566.7257 182.0748c1.3300171 17.782333 16.679688 35.839462 33.969543 42.45932c22.318237 8.54509 47.67743 7.2257233 71.71411 7.2257233" fill-rule="evenodd"></path><path fill="#000000" fill-opacity="0.0" d="m565.8123 39.951443l0.9133911 143.62204" fill-rule="nonzero"></path><path stroke="#ff0000" stroke-width="2.0" stroke-linejoin="round" stroke-linecap="butt" d="m565.8123 39.951443l0.9133911 143.62204" fill-rule="nonzero"></path><path fill="#000000" fill-opacity="0.0" d="m540.2192 8.087927l56.0 0l0 38.992126l-56.0 0z" fill-rule="nonzero"></path><path fill="#000000" d="m565.9764 27.476675q0.96875 -1.234375 1.515625 -1.609375q0.75 -0.546875 1.578125 -0.546875q0.96875 0 1.8125 0.703125q0.859375 0.703125 0.859375 2.28125q0 1.09375 -0.328125 1.71875q-0.3125 0.625 -0.984375 1.015625q-0.65625 0.375 -1.359375 0.375q-0.828125 0 -1.578125 -0.53125q-0.546875 -0.40625 -1.515625 -1.625q-1.265625 1.578125 -2.671875 1.578125q-0.9375 0 -1.625 -0.703125q-0.671875 -0.703125 -0.671875 -1.765625q0 -1.046875 0.671875 -1.765625q0.6875 -0.71875 1.625 -0.71875q1.40625 0 2.671875 1.59375zm0.640625 0.875q0.8125 1.25 1.46875 1.71875q0.4375 0.3125 0.96875 0.3125q0.703125 0 1.171875 -0.515625q0.484375 -0.53125 0.484375 -1.46875q0 -0.984375 -0.484375 -1.5q-0.484375 -0.53125 -1.21875 -0.53125q-0.453125 0 -0.84375 0.265625q-0.546875 0.359375 -1.546875 1.71875zm-1.28125 0.015625q-0.734375 -0.9375 -1.1875 -1.1875q-0.4375 -0.265625 -0.84375 -0.265625q-0.546875 0 -0.90625 0.375q-0.359375 0.375 -0.359375 1.046875q0 0.65625 0.375 1.0625q0.375 0.390625 0.90625 0.390625q0.9375 0 2.015625 -1.421875z" fill-rule="nonzero"></path><path fill="#000000" fill-opacity="0.0" d="m118.685036 138.83333l62.456703 0l0 32.91339l-62.456703 0z" fill-rule="nonzero"></path><path fill="#000000" d="m141.85692 165.75333l-13.921883 0l6.6875076 -13.109375l0.640625 0l6.59375 13.109375zm-3.515625 -0.765625l-4.578125 -9.078125l-4.609375 9.078125l9.1875 0z" fill-rule="nonzero"></path><path fill="#000000" d="m142.70451 161.37833l1.6875 -0.140625q0.125 1.015625 0.5625 1.671875q0.4375 0.65625 1.359375 1.0625q0.9375 0.40625 2.09375 0.40625q1.03125 0 1.8125 -0.3125q0.796875 -0.3125 1.1875 -0.84375q0.390625 -0.53125 0.390625 -1.15625q0 -0.640625 -0.375 -1.109375q-0.375 -0.484375 -1.234375 -0.8125q-0.546875 -0.21875 -2.421875 -0.65625q-1.875 -0.453125 -2.625 -0.859375q-0.96875 -0.515625 -1.453125 -1.265625q-0.46875 -0.75 -0.46875 -1.6875q0 -1.03125 0.578125 -1.921875q0.59375 -0.90625 1.703125 -1.359375q1.125 -0.46875 2.5 -0.46875q1.515625 0 2.671875 0.484375q1.15625 0.484375 1.765625 1.4375q0.625 0.9375 0.671875 2.140625l-1.71875 0.125q-0.140625 -1.28125 -0.953125 -1.9375q-0.796875 -0.671875 -2.359375 -0.671875q-1.625 0 -2.375 0.609375q-0.75 0.59375 -0.75 1.4375q0 0.734375 0.53125 1.203125q0.515625 0.46875 2.703125 0.96875q2.203125 0.5 3.015625 0.875q1.1875 0.546875 1.75 1.390625q0.578125 0.828125 0.578125 1.921875q0 1.09375 -0.625 2.0625q-0.625 0.953125 -1.796875 1.484375q-1.15625 0.53125 -2.609375 0.53125q-1.84375 0 -3.09375 -0.53125q-1.25 -0.546875 -1.96875 -1.625q-0.703125 -1.078125 -0.734375 -2.453125z" fill-rule="nonzero"></path><path fill="#000000" fill-opacity="0.0" d="m150.61942 121.08662l68.50394 0l0 90.14173l-68.50394 0z" fill-rule="nonzero"></path><path fill="#000000" d="m160.72879 156.5335q1.515625 -0.046875 2.453125 -0.8125q0.953125 -0.765625 1.265625 -2.109375q0.3125 -1.359375 0.328125 -4.609375q0.015625 -3.265625 0.125 -4.3125q0.171875 -1.640625 0.640625 -2.625q0.484375 -1.0 1.1875 -1.59375q0.703125 -0.59375 1.796875 -0.90625q0.75 -0.203125 2.421875 -0.203125l1.09375 0l0 3.0625l-0.609375 0q-2.03125 0 -2.703125 0.734375q-0.65625 0.734375 -0.65625 3.28125q0 5.109375 -0.203125 6.453125q-0.359375 2.09375 -1.21875 3.234375q-0.84375 1.125 -2.65625 2.0q2.15625 0.90625 3.109375 2.75q0.96875 1.84375 0.96875 6.046875q0 3.8125 0.078125 4.53125q0.15625 1.328125 0.796875 1.859375q0.640625 0.53125 2.484375 0.53125l0.609375 0l0 3.0625l-1.09375 0q-1.90625 0 -2.765625 -0.3125q-1.25 -0.453125 -2.078125 -1.46875q-0.8125 -1.0 -1.0625 -2.546875q-0.25 -1.53125 -0.265625 -5.046875q-0.015625 -3.515625 -0.328125 -4.859375q-0.3125 -1.359375 -1.265625 -2.140625q-0.9375 -0.78125 -2.453125 -0.8125l0 -3.1875z" fill-rule="nonzero"></path></g></svg>

