<?xml version="1.0" standalone="yes"?>

<svg version="1.1" viewBox="0.0 0.0 775.5511811023622 374.3517060367454" fill="none" stroke="none" stroke-linecap="square" stroke-miterlimit="10" xmlns="http://www.w3.org/2000/svg" xmlns:xlink="http://www.w3.org/1999/xlink"><clipPath id="p.0"><path d="m0 0l775.5512 0l0 374.3517l-775.5512 0l0 -374.3517z" clip-rule="nonzero"></path></clipPath><g clip-path="url(#p.0)"><path fill="#000000" fill-opacity="0.0" d="m0 0l775.5512 0l0 374.3517l-775.5512 0z" fill-rule="nonzero"></path><path stroke="#000000" stroke-width="4.0" stroke-linecap="butt" d="m8.0 4.8451443l0 365.15485" fill-rule="nonzero"></path><path stroke="#000000" stroke-width="4.0" stroke-linecap="butt" d="m388.0 4.8451443l0 365.15485" fill-rule="nonzero"></path><path stroke="#000000" stroke-width="4.0" stroke-linecap="butt" d="m768.0 4.8451443l0 365.15485" fill-rule="nonzero"></path><path stroke="#000000" stroke-width="4.0" stroke-linecap="butt" d="m6.0 6.8451443l764.0 0" fill-rule="nonzero"></path><path stroke="#000000" stroke-width="4.0" stroke-linecap="butt" d="m6.0 368.0l764.0 0" fill-rule="nonzero"></path><path fill="#000000" fill-opacity="0.0" d="m386.77167 186.96588l381.22833 0.9133911" fill-rule="nonzero"></path><path stroke="#000000" stroke-width="3.0" stroke-linejoin="round" stroke-linecap="butt" d="m386.77167 186.96588l381.22833 0.9133911" fill-rule="nonzero"></path><path fill="#000000" fill-opacity="0.0" d="m54.349083 330.3832l1.7952728 -269.19687" fill-rule="nonzero"></path><path stroke="#000000" stroke-width="2.0" stroke-linejoin="round" stroke-linecap="butt" d="m54.349083 330.3832l1.7152481 -257.1971" fill-rule="evenodd"></path><path fill="#000000" stroke="#000000" stroke-width="2.0" stroke-linecap="butt" d="m59.36772 73.208115l-3.2428627 -9.098022l-3.3639183 9.053963z" fill-rule="evenodd"></path><path fill="#000000" fill-opacity="0.0" d="m55.25197 328.5748l263.77954 0" fill-rule="nonzero"></path><path stroke="#000000" stroke-width="2.0" stroke-linejoin="round" stroke-linecap="butt" d="m55.25197 328.5748l251.77953 0" fill-rule="evenodd"></path><path fill="#000000" stroke="#000000" stroke-width="2.0" stroke-linecap="butt" d="m307.0315 331.87827l9.076202 -3.3034668l-9.076202 -3.3034668z" fill-rule="evenodd"></path><path fill="#000000" fill-opacity="0.0" d="m161.65092 317.74014l81.700775 0l0 21.669312l-81.700775 0z" fill-rule="nonzero"></path><path fill="#000000" d="m176.86967 349.78015l0 -15.15625l-5.65625 0l0 -2.03125l13.625 0l0 2.03125l-5.6875 0l0 15.15625l-2.28125 0z" fill-rule="nonzero"></path><path fill="#000000" d="m189.43608 357.51453l0.203125 1.25q-0.59375 0.125 -1.0625 0.125q-0.765625 0 -1.1875 -0.234375q-0.421875 -0.25 -0.59375 -0.640625q-0.171875 -0.40625 -0.171875 -1.671875l0 -4.765625l-1.03125 0l0 -1.09375l1.03125 0l0 -2.0625l1.40625 -0.84375l0 2.90625l1.40625 0l0 1.09375l-1.40625 0l0 4.84375q0 0.609375 0.0625 0.78125q0.078125 0.171875 0.25 0.28125q0.171875 0.09375 0.484375 0.09375q0.234375 0 0.609375 -0.0625zm1.3671875 1.265625l0 -8.296875l1.265625 0l0 1.25q0.484375 -0.875 0.890625 -1.15625q0.40625 -0.28125 0.90625 -0.28125q0.703125 0 1.4375 0.453125l-0.484375 1.296875q-0.515625 -0.296875 -1.03125 -0.296875q-0.453125 0 -0.828125 0.28125q-0.359375 0.265625 -0.515625 0.765625q-0.234375 0.75 -0.234375 1.640625l0 4.34375l-1.40625 0z" fill-rule="nonzero"></path><path fill="#000000" fill-opacity="0.0" d="m180.82414 328.5748l0 -249.32283" fill-rule="nonzero"></path><path stroke="#000000" stroke-width="1.0" stroke-linejoin="round" stroke-linecap="butt" stroke-dasharray="4.0,3.0" d="m180.82414 328.5748l0 -249.32283" fill-rule="nonzero"></path><path fill="#000000" fill-opacity="0.0" d="m38.85302 21.347769l48.7874 0l0 28.220472l-48.7874 0z" fill-rule="nonzero"></path><path fill="#000000" d="m61.962395 47.35652l2.28125 0.578125q-0.71875 2.796875 -2.578125 4.28125q-1.859375 1.46875 -4.546875 1.46875q-2.765625 0 -4.515625 -1.125q-1.734375 -1.140625 -2.640625 -3.28125q-0.90625 -2.15625 -0.90625 -4.609375q0 -2.6875 1.015625 -4.6875q1.03125 -2.0 2.921875 -3.03125q1.890625 -1.03125 4.171875 -1.03125q2.578125 0 4.328125 1.3125q1.765625 1.3125 2.453125 3.6875l-2.234375 0.53125q-0.609375 -1.875 -1.75 -2.734375q-1.125 -0.859375 -2.84375 -0.859375q-1.984375 0 -3.3125 0.953125q-1.328125 0.953125 -1.875 2.546875q-0.53125 1.59375 -0.53125 3.296875q0 2.1875 0.625 3.828125q0.640625 1.640625 1.984375 2.453125q1.359375 0.796875 2.921875 0.796875q1.921875 0 3.234375 -1.09375q1.328125 -1.109375 1.796875 -3.28125z" fill-rule="nonzero"></path><path fill="#000000" d="m68.56005 60.38777l-3.328125 -8.59375l1.234375 0l2.234375 6.25q0.265625 0.75 0.453125 1.40625q0.203125 -0.703125 0.46875 -1.40625l2.3125 -6.25l1.15625 0l-3.359375 8.59375l-1.171875 0z" fill-rule="nonzero"></path><path fill="#000000" fill-opacity="0.0" d="m319.0315 306.87402l38.834656 0l0 32.53543l-38.834656 0z" fill-rule="nonzero"></path><path fill="#000000" d="m334.25024 338.914l0 -15.15625l-5.65625 0l0 -2.03125l13.625 0l0 2.03125l-5.6875 0l0 15.15625l-2.28125 0z" fill-rule="nonzero"></path><path fill="#000000" fill-opacity="0.0" d="m428.0 167.45145l0 -128.0" fill-rule="nonzero"></path><path stroke="#000000" stroke-width="2.0" stroke-linejoin="round" stroke-linecap="butt" d="m428.0 167.45145l0 -116.0" fill-rule="evenodd"></path><path fill="#000000" stroke="#000000" stroke-width="2.0" stroke-linecap="butt" d="m431.30347 51.451443l-3.3034668 -9.076195l-3.3034668 9.076195z" fill-rule="evenodd"></path><path fill="#000000" fill-opacity="0.0" d="m428.0 167.45145l288.0 0" fill-rule="nonzero"></path><path stroke="#000000" stroke-width="2.0" stroke-linejoin="round" stroke-linecap="butt" d="m428.0 167.45145l276.0 0" fill-rule="evenodd"></path><path fill="#000000" stroke="#000000" stroke-width="2.0" stroke-linecap="butt" d="m704.0 170.75491l9.076172 -3.3034668l-9.076172 -3.3034668z" fill-rule="evenodd"></path><path fill="#000000" fill-opacity="0.0" d="m404.0 -0.54855645l104.0 0l0 40.0l-104.0 0z" fill-rule="nonzero"></path><path fill="#000000" d="m414.57812 31.491444l0 -17.1875l2.109375 0l0 6.171874q1.484375 -1.71875 3.734375 -1.71875q1.375 0 2.390625 0.546875q1.03125 0.546875 1.46875 1.515625q0.4375 0.953125 0.4375 2.78125l0 7.890625l-2.109375 0l0 -7.890625q0 -1.578125 -0.6875 -2.296875q-0.6875 -0.71875 -1.9375 -0.71875q-0.9375 0 -1.765625 0.484375q-0.828125 0.484375 -1.1875 1.3125q-0.34375 0.828125 -0.34375 2.296875l0 6.8125l-2.109375 0zm17.378906 5.046875q-1.734375 -2.203125 -2.953125 -5.15625q-1.203125 -2.953125 -1.203125 -6.109375q0 -2.796875 0.90625 -5.34375q1.046875 -2.96875 3.25 -5.906249l1.515625 0q-1.421875 2.437499 -1.875 3.468749q-0.71875 1.625 -1.125 3.375q-0.5 2.203125 -0.5 4.40625q0 5.640625 3.5 11.265625l-1.515625 0zm4.2890625 -5.046875l0 -17.1875l12.421875 0l0 2.031249l-10.15625 0l0 5.265625l9.5 0l0 2.015625l-9.5 0l0 5.84375l10.546875 0l0 2.03125l-12.8125 0zm17.070312 5.046875l-1.515625 0q3.5 -5.625 3.5 -11.265625q0 -2.203125 -0.5 -4.359375q-0.390625 -1.765625 -1.109375 -3.375q-0.453125 -1.0625 -1.890625 -3.515624l1.515625 0q2.203125 2.937499 3.25 5.906249q0.90625 2.546875 0.90625 5.34375q0 3.15625 -1.21875 6.109375q-1.203125 2.953125 -2.9375 5.15625z" fill-rule="nonzero"></path><path fill="#000000" fill-opacity="0.0" d="m716.0 143.45145l88.0 0l0 32.0l-88.0 0z" fill-rule="nonzero"></path><path fill="#000000" d="m726.90625 175.49144l0 -17.1875l12.421875 0l0 2.03125l-10.15625 0l0 5.265625l9.5 0l0 2.015625l-9.5 0l0 5.84375l10.546875 0l0 2.03125l-12.8125 0z" fill-rule="nonzero"></path><path fill="#000000" fill-opacity="0.0" d="m428.0 351.45145l0 -128.0" fill-rule="nonzero"></path><path stroke="#000000" stroke-width="2.0" stroke-linejoin="round" stroke-linecap="butt" d="m428.0 351.45145l0 -116.0" fill-rule="evenodd"></path><path fill="#000000" stroke="#000000" stroke-width="2.0" stroke-linecap="butt" d="m431.30347 235.45145l-3.3034668 -9.076202l-3.3034668 9.076202z" fill-rule="evenodd"></path><path fill="#000000" fill-opacity="0.0" d="m428.0 351.45145l288.0 0" fill-rule="nonzero"></path><path stroke="#000000" stroke-width="2.0" stroke-linejoin="round" stroke-linecap="butt" d="m428.0 351.45145l276.0 0" fill-rule="evenodd"></path><path fill="#000000" stroke="#000000" stroke-width="2.0" stroke-linecap="butt" d="m704.0 354.7549l9.076172 -3.3034668l-9.076172 -3.3034668z" fill-rule="evenodd"></path><path fill="#000000" fill-opacity="0.0" d="m404.0 183.45145l104.0 0l0 40.0l-104.0 0z" fill-rule="nonzero"></path><path fill="#000000" d="m414.57812 215.49144l0 -17.1875l2.109375 0l0 6.171875q1.484375 -1.71875 3.734375 -1.71875q1.375 0 2.390625 0.546875q1.03125 0.546875 1.46875 1.515625q0.4375 0.953125 0.4375 2.78125l0 7.890625l-2.109375 0l0 -7.890625q0 -1.578125 -0.6875 -2.296875q-0.6875 -0.71875 -1.9375 -0.71875q-0.9375 0 -1.765625 0.484375q-0.828125 0.484375 -1.1875 1.3125q-0.34375 0.828125 -0.34375 2.296875l0 6.8125l-2.109375 0zm17.378906 5.046875q-1.734375 -2.203125 -2.953125 -5.15625q-1.203125 -2.953125 -1.203125 -6.109375q0 -2.796875 0.90625 -5.34375q1.046875 -2.96875 3.25 -5.90625l1.515625 0q-1.421875 2.4375 -1.875 3.46875q-0.71875 1.625 -1.125 3.375q-0.5 2.203125 -0.5 4.40625q0 5.640625 3.5 11.265625l-1.515625 0zm4.2890625 -5.046875l0 -17.1875l12.421875 0l0 2.03125l-10.15625 0l0 5.265625l9.5 0l0 2.015625l-9.5 0l0 5.84375l10.546875 0l0 2.03125l-12.8125 0zm17.070312 5.046875l-1.515625 0q3.5 -5.625 3.5 -11.265625q0 -2.203125 -0.5 -4.359375q-0.390625 -1.765625 -1.109375 -3.375q-0.453125 -1.0625 -1.890625 -3.515625l1.515625 0q2.203125 2.9375 3.25 5.90625q0.90625 2.546875 0.90625 5.34375q0 3.15625 -1.21875 6.109375q-1.203125 2.953125 -2.9375 5.15625z" fill-rule="nonzero"></path><path fill="#000000" fill-opacity="0.0" d="m716.0 327.45145l88.0 0l0 32.0l-88.0 0z" fill-rule="nonzero"></path><path fill="#000000" d="m726.90625 359.49146l0 -17.1875l12.421875 0l0 2.03125l-10.15625 0l0 5.265625l9.5 0l0 2.015625l-9.5 0l0 5.84375l10.546875 0l0 2.03125l-12.8125 0z" fill-rule="nonzero"></path><path fill="#000000" fill-opacity="0.0" d="m487.97375 347.54626c9.67218 -0.9666443 21.131927 -1.2552795 28.005249 -8.128601c18.144714 -18.144714 20.009277 -67.37262 45.170593 -62.335968c22.059021 4.4156494 17.216614 42.342957 31.619446 59.624695c6.050293 7.2596436 16.746521 10.839874 26.196838 10.839874" fill-rule="evenodd"></path><path stroke="#00ff00" stroke-width="2.0" stroke-linejoin="round" stroke-linecap="butt" d="m487.97375 347.54626c9.67218 -0.9666443 21.131927 -1.2552795 28.005249 -8.128601c18.144714 -18.144714 20.009277 -67.37262 45.170593 -62.335968c22.059021 4.4156494 17.216614 42.342957 31.619446 59.624695c6.050293 7.2596436 16.746521 10.839874 26.196838 10.839874" fill-rule="evenodd"></path><path fill="#000000" fill-opacity="0.0" d="m519.3018 166.98163l0 -120.0" fill-rule="nonzero"></path><path stroke="#000000" stroke-width="2.0" stroke-linejoin="round" stroke-linecap="butt" stroke-dasharray="8.0,6.0" d="m519.3018 166.98163l0 -120.0" fill-rule="nonzero"></path><path fill="#000000" fill-opacity="0.0" d="m632.22833 167.45145l0 -120.0" fill-rule="nonzero"></path><path stroke="#000000" stroke-width="2.0" stroke-linejoin="round" stroke-linecap="butt" stroke-dasharray="8.0,6.0" d="m632.22833 167.45145l0 -120.0" fill-rule="nonzero"></path><path fill="#000000" fill-opacity="0.0" d="m76.0 -144.54855l216.0 0l0 80.0l-216.0 0z" fill-rule="nonzero"></path><path fill="#000000" fill-opacity="0.0" d="m548.0 71.45145l72.0 0" fill-rule="nonzero"></path><path stroke="#000000" stroke-width="1.0" stroke-linejoin="round" stroke-linecap="butt" d="m548.0 71.45145l66.0 0" fill-rule="evenodd"></path><path fill="#000000" stroke="#000000" stroke-width="1.0" stroke-linecap="butt" d="m614.0 73.10317l4.538086 -1.6517258l-4.538086 -1.6517334z" fill-rule="evenodd"></path><path fill="#000000" fill-opacity="0.0" d="m596.0 71.45145l-64.0 0" fill-rule="nonzero"></path><path stroke="#000000" stroke-width="1.0" stroke-linejoin="round" stroke-linecap="butt" d="m596.0 71.45145l-58.0 0" fill-rule="evenodd"></path><path fill="#000000" stroke="#000000" stroke-width="1.0" stroke-linecap="butt" d="m538.0 69.79971l-4.538086 1.6517334l4.538086 1.6517258z" fill-rule="evenodd"></path><path fill="#000000" fill-opacity="0.0" d="m548.0 31.451443l152.0 0l0 96.0l-152.0 0z" fill-rule="nonzero"></path><path fill="#000000" d="m574.90625 63.491444l-17.59375 0l8.453125 -16.5625l0.8125 0l8.328125 16.5625zm-4.4375 -0.953125l-5.78125 -11.484375l-5.84375 11.484375l11.625 0z" fill-rule="nonzero"></path><path fill="#000000" d="m590.09094 61.647694q1.578125 1.09375 2.921875 1.59375l-0.671875 1.5937538q-1.859375 -0.671875 -3.6875 -2.1250038q-1.921875 1.078125 -4.21875 1.078125q-2.34375 0 -4.25 -1.125q-1.890625 -1.125 -2.921875 -3.15625q-1.015625 -2.046875 -1.015625 -4.609375q0 -2.546875 1.03125 -4.625q1.03125 -2.09375 2.9375 -3.171875q1.90625 -1.09375 4.265625 -1.09375q2.375 0 4.28125 1.140625q1.90625 1.125 2.90625 3.15625q1.015625 2.03125 1.015625 4.578125q0 2.125 -0.65625 3.828125q-0.640625 1.6875 -1.9375 2.9375zm-5.0 -2.90625q1.96875 0.546875 3.234375 1.640625q2.015625 -1.828125 2.015625 -5.5q0 -2.078125 -0.71875 -3.640625q-0.703125 -1.5625 -2.078125 -2.421875q-1.359375 -0.859375 -3.0625 -0.859375q-2.53125 0 -4.21875 1.75q-1.671875 1.734375 -1.671875 5.1875q0 3.359375 1.65625 5.15625q1.65625 1.78125 4.234375 1.78125q1.21875 0 2.296875 -0.453125q-1.0625 -0.6875 -2.25 -0.984375l0.5625 -1.65625z" fill-rule="nonzero"></path><path fill="#000000" fill-opacity="0.0" d="m341.94226 0l58.04724 0l0 40.0l-58.04724 0z" fill-rule="nonzero"></path><path fill="#000000" d="m356.55164 37.086876q-1.734375 -2.203125 -2.953125 -5.15625q-1.203125 -2.953125 -1.203125 -6.109375q0 -2.796875 0.90625 -5.34375q1.046875 -2.96875 3.25 -5.90625l1.515625 0q-1.421875 2.4375 -1.875 3.46875q-0.71875 1.625 -1.125 3.375q-0.5 2.203125 -0.5 4.40625q0 5.640625 3.5 11.265625l-1.515625 0zm12.0859375 -6.578125q-1.171875 0.984375 -2.265625 1.40625q-1.078125 0.40625 -2.3125 0.40625q-2.046875 0 -3.15625 -1.0q-1.09375 -1.0 -1.09375 -2.5625q0 -0.921875 0.40625 -1.671875q0.421875 -0.75 1.09375 -1.203125q0.671875 -0.46875 1.515625 -0.703125q0.625 -0.15625 1.875 -0.3125q2.5625 -0.3125 3.765625 -0.734375q0.015625 -0.421875 0.015625 -0.546875q0 -1.28125 -0.609375 -1.8125q-0.796875 -0.71875 -2.390625 -0.71875q-1.5 0 -2.203125 0.53125q-0.703125 0.515625 -1.046875 1.84375l-2.0625 -0.28125q0.28125 -1.328125 0.921875 -2.140625q0.640625 -0.8125 1.859375 -1.25q1.21875 -0.453125 2.828125 -0.453125q1.59375 0 2.59375 0.375q1.0 0.375 1.46875 0.953125q0.46875 0.5625 0.65625 1.4375q0.09375 0.53125 0.09375 1.9375l0 2.8125q0 2.9375 0.140625 3.71875q0.140625 0.78125 0.53125 1.5l-2.203125 0q-0.328125 -0.65625 -0.421875 -1.53125zm-0.171875 -4.71875q-1.15625 0.46875 -3.453125 0.796875q-1.296875 0.1875 -1.84375 0.421875q-0.53125 0.234375 -0.828125 0.6875q-0.28125 0.453125 -0.28125 1.0q0 0.84375 0.625 1.40625q0.640625 0.5625 1.875 0.5625q1.21875 0 2.171875 -0.53125q0.953125 -0.53125 1.390625 -1.453125q0.34375 -0.71875 0.34375 -2.109375l0 -0.78125zm6.7851562 11.296875l-1.515625 0q3.5 -5.625 3.5 -11.265625q0 -2.203125 -0.5 -4.359375q-0.390625 -1.765625 -1.109375 -3.375q-0.453125 -1.0625 -1.890625 -3.515625l1.515625 0q2.203125 2.9375 3.25 5.90625q0.90625 2.546875 0.90625 5.34375q0 3.15625 -1.21875 6.109375q-1.203125 2.953125 -2.9375 5.15625z" fill-rule="nonzero"></path><path fill="#000000" fill-opacity="0.0" d="m722.3989 0l54.299255 0l0 56.0l-54.299255 0z" fill-rule="nonzero"></path><path fill="#000000" d="m737.0083 37.086876q-1.734375 -2.203125 -2.953125 -5.15625q-1.203125 -2.953125 -1.203125 -6.109375q0 -2.796875 0.90625 -5.34375q1.046875 -2.96875 3.25 -5.90625l1.515625 0q-1.421875 2.4375 -1.875 3.46875q-0.71875 1.625 -1.125 3.375q-0.5 2.203125 -0.5 4.40625q0 5.640625 3.5 11.265625l-1.515625 0zm5.9140625 -5.046875l-1.953125 0l0 -17.1875l2.109375 0l0 6.140625q1.328125 -1.6875 3.40625 -1.6875q1.140625 0 2.171875 0.46875q1.03125 0.46875 1.6875 1.3125q0.65625 0.828125 1.03125 2.015625q0.375 1.171875 0.375 2.53125q0 3.1875 -1.578125 4.9375q-1.578125 1.75 -3.796875 1.75q-2.203125 0 -3.453125 -1.84375l0 1.5625zm-0.03125 -6.3125q0 2.234375 0.609375 3.234375q1.0 1.625 2.703125 1.625q1.375 0 2.375 -1.203125q1.015625 -1.203125 1.015625 -3.578125q0 -2.4375 -0.96875 -3.59375q-0.953125 -1.171875 -2.328125 -1.171875q-1.390625 0 -2.40625 1.203125q-1.0 1.203125 -1.0 3.484375zm12.816406 11.359375l-1.515625 0q3.5 -5.625 3.5 -11.265625q0 -2.203125 -0.5 -4.359375q-0.390625 -1.765625 -1.109375 -3.375q-0.453125 -1.0625 -1.890625 -3.515625l1.515625 0q2.203125 2.9375 3.25 5.90625q0.90625 2.546875 0.90625 5.34375q0 3.15625 -1.21875 6.109375q-1.203125 2.953125 -2.9375 5.15625z" fill-rule="nonzero"></path><path fill="#000000" fill-opacity="0.0" d="m724.0 180.61679l80.0 0l0 72.0l-80.0 0z" fill-rule="nonzero"></path><path fill="#000000" d="m738.6094 217.70367q-1.734375 -2.203125 -2.953125 -5.15625q-1.203125 -2.953125 -1.203125 -6.109375q0 -2.796875 0.90625 -5.34375q1.046875 -2.96875 3.25 -5.90625l1.515625 0q-1.421875 2.4375 -1.875 3.46875q-0.71875 1.625 -1.125 3.375q-0.5 2.203125 -0.5 4.40625q0 5.640625 3.5 11.265625l-1.515625 0zm12.0859375 -9.609375l2.078125 0.265625q-0.34375 2.15625 -1.75 3.375q-1.390625 1.203125 -3.4375 1.203125q-2.546875 0 -4.109375 -1.671875q-1.546875 -1.671875 -1.546875 -4.78125q0 -2.015625 0.671875 -3.53125q0.671875 -1.515625 2.03125 -2.265625q1.359375 -0.765625 2.96875 -0.765625q2.03125 0 3.3125 1.03125q1.296875 1.03125 1.65625 2.90625l-2.046875 0.328125q-0.296875 -1.265625 -1.046875 -1.890625q-0.734375 -0.640625 -1.796875 -0.640625q-1.59375 0 -2.59375 1.15625q-0.984375 1.140625 -0.984375 3.609375q0 2.5 0.953125 3.640625q0.96875 1.140625 2.515625 1.140625q1.234375 0 2.0625 -0.765625q0.84375 -0.765625 1.0625 -2.34375zm5.265625 9.609375l-1.515625 0q3.5 -5.625 3.5 -11.265625q0 -2.203125 -0.5 -4.359375q-0.390625 -1.765625 -1.109375 -3.375q-0.453125 -1.0625 -1.890625 -3.515625l1.515625 0q2.203125 2.9375 3.25 5.90625q0.90625 2.546875 0.90625 5.34375q0 3.15625 -1.21875 6.109375q-1.203125 2.953125 -2.9375 5.15625z" fill-rule="nonzero"></path><path fill="#000000" fill-opacity="0.0" d="m228.69817 271.53018c-8.0 -29.333328 -33.333344 -177.33333 -48.0 -176.0c-14.666672 1.3333359 -22.666672 146.66667 -40.0 184.0c-17.333336 37.333344 -53.333336 33.333344 -64.0 40.0" fill-rule="nonzero"></path><path stroke="#ff0000" stroke-width="2.0" stroke-linejoin="round" stroke-linecap="butt" d="m228.69817 271.53018c-8.0 -29.333328 -33.333344 -177.33333 -48.0 -176.0c-14.666672 1.3333359 -22.666672 146.66667 -40.0 184.0c-17.333336 37.333344 -53.333336 33.333344 -64.0 40.0" fill-rule="nonzero"></path><path fill="#000000" fill-opacity="0.0" d="m227.12599 266.00262c4.933838 17.568176 17.88913 39.54471 36.062973 41.18634" fill-rule="evenodd"></path><path stroke="#ff0000" stroke-width="2.0" stroke-linejoin="round" stroke-linecap="butt" d="m227.12599 266.00262c4.933838 17.568176 17.88913 39.54471 36.062973 41.18634" fill-rule="evenodd"></path><path fill="#000000" fill-opacity="0.0" d="m460.30447 164.39687c26.241577 0 41.966156 -35.69667 50.259827 -60.59317c1.9009705 -5.706375 5.777252 -16.533295 11.27298 -14.089241c16.24353 7.223839 9.335022 34.650497 17.847778 50.257225c7.48291 13.718735 27.180115 20.671997 42.742737 19.257217c20.649902 -1.8772583 31.957458 -29.176819 38.514465 -48.84778c2.2109985 -6.6330795 5.158203 -19.7322 11.742798 -17.380577c16.70868 5.967392 13.701416 32.74108 21.136475 48.850395c5.4040527 11.70874 20.923218 18.7874 33.81891 18.7874" fill-rule="evenodd"></path><path stroke="#0000ff" stroke-width="2.0" stroke-linejoin="round" stroke-linecap="butt" d="m460.30447 164.39687c26.241577 0 41.966156 -35.69667 50.259827 -60.59317c1.9009705 -5.706375 5.777252 -16.533295 11.27298 -14.089241c16.24353 7.223839 9.335022 34.650497 17.847778 50.257225c7.48291 13.718735 27.180115 20.671997 42.742737 19.257217c20.649902 -1.8772583 31.957458 -29.176819 38.514465 -48.84778c2.2109985 -6.6330795 5.158203 -19.7322 11.742798 -17.380577c16.70868 5.967392 13.701416 32.74108 21.136475 48.850395c5.4040527 11.70874 20.923218 18.7874 33.81891 18.7874" fill-rule="evenodd"></path></g></svg>

