<?xml version="1.0" standalone="yes"?>

<svg version="1.1" viewBox="0.0 0.0 816.5958005249344 351.70866141732284" fill="none" stroke="none" stroke-linecap="square" stroke-miterlimit="10" xmlns="http://www.w3.org/2000/svg" xmlns:xlink="http://www.w3.org/1999/xlink"><clipPath id="p.0"><path d="m0 0l816.5958 0l0 351.70865l-816.5958 0l0 -351.70865z" clip-rule="nonzero"></path></clipPath><g clip-path="url(#p.0)"><path fill="#000000" fill-opacity="0.0" d="m0 0l816.5958 0l0 351.70865l-816.5958 0z" fill-rule="nonzero"></path><path fill="#0000ff" d="m81.69292 236.82784l0 0c2.3222046 -13.52446 15.175507 -22.605667 28.708656 -20.283463l0 0c6.498848 1.1151581 12.288528 4.7646484 16.095367 10.145615c3.8068466 5.380966 5.319008 12.052628 4.20385 18.547302l0 0c-2.3222046 13.52446 -15.175514 22.605667 -28.708664 20.283463l0 0c-13.53315 -2.3222046 -22.621422 -15.168457 -20.29921 -28.692917z" fill-rule="nonzero"></path><path stroke="#000000" stroke-width="3.0" stroke-linejoin="round" stroke-linecap="butt" d="m81.69292 236.82784l0 0c2.3222046 -13.52446 15.175507 -22.605667 28.708656 -20.283463l0 0c6.498848 1.1151581 12.288528 4.7646484 16.095367 10.145615c3.8068466 5.380966 5.319008 12.052628 4.20385 18.547302l0 0c-2.3222046 13.52446 -15.175514 22.605667 -28.708664 20.283463l0 0c-13.53315 -2.3222046 -22.621422 -15.168457 -20.29921 -28.692917z" fill-rule="nonzero"></path><path fill="#0000ff" d="m161.64372 250.2894l0 0c3.1397552 -13.35051 16.521866 -21.62091 29.889755 -18.472443l0 0c6.4194946 1.5119476 11.977112 5.508774 15.450226 11.111237c3.473114 5.602463 4.5772247 12.351639 3.069458 18.762787l0 0c-3.1397552 13.350494 -16.52185 21.62088 -29.889755 18.472443l0 0c-13.367905 -3.148468 -21.65944 -16.52353 -18.519684 -29.874023z" fill-rule="nonzero"></path><path stroke="#000000" stroke-width="3.0" stroke-linejoin="round" stroke-linecap="butt" d="m161.64372 250.2894l0 0c3.1397552 -13.35051 16.521866 -21.62091 29.889755 -18.472443l0 0c6.4194946 1.5119476 11.977112 5.508774 15.450226 11.111237c3.473114 5.602463 4.5772247 12.351639 3.069458 18.762787l0 0c-3.1397552 13.350494 -16.52185 21.62088 -29.889755 18.472443l0 0c-13.367905 -3.148468 -21.65944 -16.52353 -18.519684 -29.874023z" fill-rule="nonzero"></path><path fill="#0000ff" d="m225.55444 206.2319l0 0c0 -13.715805 11.13295 -24.834656 24.86615 -24.834656l0 0c6.5949097 0 12.919708 2.6165009 17.583008 7.2739105c4.6632996 4.6573944 7.283142 10.974182 7.283142 17.560745l0 0c0 13.71579 -11.132965 24.83464 -24.86615 24.83464l0 0c-13.7332 0 -24.86615 -11.118851 -24.86615 -24.83464z" fill-rule="nonzero"></path><path stroke="#000000" stroke-width="3.0" stroke-linejoin="round" stroke-linecap="butt" d="m225.55444 206.2319l0 0c0 -13.715805 11.13295 -24.834656 24.86615 -24.834656l0 0c6.5949097 0 12.919708 2.6165009 17.583008 7.2739105c4.6632996 4.6573944 7.283142 10.974182 7.283142 17.560745l0 0c0 13.71579 -11.132965 24.83464 -24.86615 24.83464l0 0c-13.7332 0 -24.86615 -11.118851 -24.86615 -24.83464z" fill-rule="nonzero"></path><path fill="#0000ff" d="m276.17462 139.70341l0 0c-3.7572632 -13.185257 3.9067688 -26.92694 17.118103 -30.692917l0 0c6.34433 -1.8084869 13.145538 -1.0276031 18.907501 2.1708527c5.7619324 3.1984482 10.012604 8.552483 11.816925 14.88427l0 0c3.7572632 13.185249 -3.9067688 26.926933 -17.118103 30.69291l0 0c-13.211365 3.765976 -26.967133 -3.8698578 -30.724426 -17.055115z" fill-rule="nonzero"></path><path stroke="#000000" stroke-width="3.0" stroke-linejoin="round" stroke-linecap="butt" d="m276.17462 139.70341l0 0c-3.7572632 -13.185257 3.9067688 -26.92694 17.118103 -30.692917l0 0c6.34433 -1.8084869 13.145538 -1.0276031 18.907501 2.1708527c5.7619324 3.1984482 10.012604 8.552483 11.816925 14.88427l0 0c3.7572632 13.185249 -3.9067688 26.926933 -17.118103 30.69291l0 0c-13.211365 3.765976 -26.967133 -3.8698578 -30.724426 -17.055115z" fill-rule="nonzero"></path><path fill="#ffffff" d="m309.36487 244.13953l0 0c5.1923523 -12.698196 19.709595 -18.789948 32.4252 -13.606308l0 0c6.1062317 2.4892883 10.971863 7.2989807 13.526489 13.371033c2.5546265 6.0720367 2.5890198 12.909042 0.09555054 19.006912l0 0c-5.1923523 12.698212 -19.709595 18.789948 -32.4252 13.606323l0 0c-12.715576 -5.183655 -18.814392 -19.679749 -13.62204 -32.37796z" fill-rule="nonzero"></path><path stroke="#ff0000" stroke-width="3.0" stroke-linejoin="round" stroke-linecap="butt" stroke-dasharray="12.0,9.0" d="m309.36487 244.13953l0 0c5.1923523 -12.698196 19.709595 -18.789948 32.4252 -13.606308l0 0c6.1062317 2.4892883 10.971863 7.2989807 13.526489 13.371033c2.5546265 6.0720367 2.5890198 12.909042 0.09555054 19.006912l0 0c-5.1923523 12.698212 -19.709595 18.789948 -32.4252 13.606323l0 0c-12.715576 -5.183655 -18.814392 -19.679749 -13.62204 -32.37796z" fill-rule="nonzero"></path><path fill="#000000" fill-opacity="0.0" d="m130.70079 245.23729l30.929138 5.0393677" fill-rule="nonzero"></path><path stroke="#000000" stroke-width="3.0" stroke-linejoin="round" stroke-linecap="butt" d="m130.70079 245.23729l30.929138 5.0393677" fill-rule="nonzero"></path><path fill="#000000" fill-opacity="0.0" d="m232.83757 223.79265l-25.858261 19.149597" fill-rule="nonzero"></path><path stroke="#000000" stroke-width="3.0" stroke-linejoin="round" stroke-linecap="butt" d="m232.83757 223.79265l-25.858261 19.149597" fill-rule="nonzero"></path><path fill="#000000" fill-opacity="0.0" d="m287.99155 154.58768l-20.0 34.07875" fill-rule="nonzero"></path><path stroke="#000000" stroke-width="3.0" stroke-linejoin="round" stroke-linecap="butt" d="m287.99155 154.58768l-20.0 34.07875" fill-rule="nonzero"></path><path fill="#000000" fill-opacity="0.0" d="m268.0036 223.79265l41.35434 20.34645" fill-rule="nonzero"></path><path stroke="#ff0000" stroke-width="3.0" stroke-linejoin="round" stroke-linecap="butt" stroke-dasharray="12.0,9.0" d="m268.0036 223.79265l41.35434 20.34645" fill-rule="nonzero"></path><path fill="#000000" fill-opacity="0.0" d="m316.80228 165.62222l16.0 48.0" fill-rule="nonzero"></path><path stroke="#000000" stroke-width="3.0" stroke-linejoin="round" stroke-linecap="butt" d="m316.80228 165.62224l10.307922 30.92369" fill-rule="evenodd"></path><path fill="#000000" stroke="#000000" stroke-width="3.0" stroke-linecap="butt" d="m322.40927 198.1129l9.006134 11.348679l0.39569092 -14.48262z" fill-rule="evenodd"></path><path stroke="#000000" stroke-width="4.0" stroke-linecap="butt" d="m5.2703414 16.192913l0 316.00262" fill-rule="nonzero"></path><path stroke="#000000" stroke-width="4.0" stroke-linecap="butt" d="m412.95013 16.192913l0 316.00262" fill-rule="nonzero"></path><path stroke="#000000" stroke-width="4.0" stroke-linecap="butt" d="m813.1286 16.192913l0 316.00262" fill-rule="nonzero"></path><path stroke="#000000" stroke-width="4.0" stroke-linecap="butt" d="m3.2703412 18.192913l811.8583 0" fill-rule="nonzero"></path><path stroke="#000000" stroke-width="4.0" stroke-linecap="butt" d="m3.2703412 330.19553l811.8583 0" fill-rule="nonzero"></path><path fill="#ffff00" d="m494.5002 200.09154l0 0c-2.0351868 -13.55925 7.320984 -26.215134 20.897614 -28.267715l0 0c6.5197754 -0.98568726 13.160706 0.6556244 18.461914 4.5628815c5.3012085 3.907257 8.828491 9.760376 9.805847 16.271759l0 0c2.0351562 13.559235 -7.321045 26.215134 -20.897644 28.267715l0 0c-13.57666 2.0525818 -26.232544 -7.275406 -28.26773 -20.83464z" fill-rule="nonzero"></path><path stroke="#000000" stroke-width="3.0" stroke-linejoin="round" stroke-linecap="butt" d="m494.5002 200.09154l0 0c-2.0351868 -13.55925 7.320984 -26.215134 20.897614 -28.267715l0 0c6.5197754 -0.98568726 13.160706 0.6556244 18.461914 4.5628815c5.3012085 3.907257 8.828491 9.760376 9.805847 16.271759l0 0c2.0351562 13.559235 -7.321045 26.215134 -20.897644 28.267715l0 0c-13.57666 2.0525818 -26.232544 -7.275406 -28.26773 -20.83464z" fill-rule="nonzero"></path><path fill="#0000ff" d="m661.76117 84.43044l0 0c8.23645 -10.958717 23.818298 -13.144417 34.80316 -4.8818893l0 0c5.2750854 3.9678116 8.762878 9.863647 9.696106 16.390503c0.9332886 6.5268555 -0.76446533 13.150085 -4.7197266 18.412651l0 0c-8.23645 10.958717 -23.81836 13.144417 -34.80316 4.8818893l0 0c-10.984802 -8.262527 -13.21283 -23.844429 -4.9763794 -34.803154z" fill-rule="nonzero"></path><path stroke="#000000" stroke-width="3.0" stroke-linejoin="round" stroke-linecap="butt" d="m661.76117 84.43044l0 0c8.23645 -10.958717 23.818298 -13.144417 34.80316 -4.8818893l0 0c5.2750854 3.9678116 8.762878 9.863647 9.696106 16.390503c0.9332886 6.5268555 -0.76446533 13.150085 -4.7197266 18.412651l0 0c-8.23645 10.958717 -23.81836 13.144417 -34.80316 4.8818893l0 0c-10.984802 -8.262527 -13.21283 -23.844429 -4.9763794 -34.803154z" fill-rule="nonzero"></path><path fill="#000000" fill-opacity="0.0" d="m333.4882 165.9033l48.0 0l0 56.0l-48.0 0z" fill-rule="nonzero"></path><path fill="#000000" d="m356.66006 192.8233l-13.921875 0l6.6875 -13.109375l0.640625 0l6.59375 13.109375zm-3.515625 -0.765625l-4.578125 -9.078125l-4.609375 9.078125l9.1875 0z" fill-rule="nonzero"></path><path fill="#000000" d="m360.50766 192.8233l-2.609375 0l0 -9.859375l2.421875 0l0 1.40625q0.625 -0.984375 1.109375 -1.296875q0.5 -0.328125 1.140625 -0.328125q0.890625 0 1.71875 0.5l-0.8125 2.265625q-0.65625 -0.421875 -1.21875 -0.421875q-0.546875 0 -0.9375 0.296875q-0.375 0.296875 -0.59375 1.09375q-0.21875 0.78125 -0.21875 3.296875l0 3.046875z" fill-rule="nonzero"></path><path fill="#000000" d="m364.7679 192.7608l0 -1.53125l1.65625 0l0 1.53125l-1.65625 0zm0 7.0625l0 -6.21875l1.65625 0l0 6.21875l-1.65625 0z" fill-rule="nonzero"></path><path fill="#000000" fill-opacity="0.0" d="m517.7683 198.1916l240.0 0" fill-rule="nonzero"></path><path stroke="#000000" stroke-width="2.0" stroke-linejoin="round" stroke-linecap="butt" d="m517.7683 198.1916l228.0 0" fill-rule="evenodd"></path><path fill="#000000" stroke="#000000" stroke-width="2.0" stroke-linecap="butt" d="m745.7683 201.49507l9.076172 -3.3034668l-9.076172 -3.3034668z" fill-rule="evenodd"></path><path fill="#000000" fill-opacity="0.0" d="m660.45404 166.19423l-72.0 0l0 48.0l72.0 0z" fill-rule="nonzero"></path><path fill="#000000" d="m598.71967 193.11423l0 -13.59375l2.609375 0l0 7.203125l3.0625 -3.46875l3.203125 0l-3.375 3.609375l3.609375 6.25l-2.796875 0l-2.484375 -4.421875l-1.21875 1.265625l0 3.15625l-2.609375 0z" fill-rule="nonzero"></path><path fill="#000000" fill-opacity="0.0" d="m516.45404 198.19423l168.0 -96.0" fill-rule="nonzero"></path><path stroke="#000000" stroke-width="2.0" stroke-linejoin="round" stroke-linecap="butt" d="m516.45404 198.19423l157.58112 -90.04633" fill-rule="evenodd"></path><path fill="#000000" stroke="#000000" stroke-width="2.0" stroke-linecap="butt" d="m675.67413 111.016106l6.241333 -7.371269l-9.519287 1.6348419z" fill-rule="evenodd"></path><path fill="#000000" fill-opacity="0.0" d="m516.7244 198.19292l192.0 48.0" fill-rule="nonzero"></path><path stroke="#000000" stroke-width="2.0" stroke-linejoin="round" stroke-linecap="butt" stroke-dasharray="8.0,6.0" d="m516.7244 198.19292l180.35828 45.08957" fill-rule="evenodd"></path><path fill="#000000" stroke="#000000" stroke-width="2.0" stroke-linecap="butt" d="m696.2815 246.48732l9.606384 -1.00354l-8.003967 -5.406128z" fill-rule="evenodd"></path><path fill="#000000" fill-opacity="0.0" d="m596.45404 110.19423l48.0 0l0 32.0l-48.0 0z" fill-rule="nonzero"></path><path fill="#000000" d="m609.3134 137.11423l-2.609375 0l0 -9.859375l2.421875 0l0 1.40625q0.625 -0.984375 1.109375 -1.296875q0.5 -0.328125 1.140625 -0.328125q0.890625 0 1.71875 0.5l-0.8125 2.265625q-0.65625 -0.421875 -1.21875 -0.421875q-0.546875 0 -0.9375 0.296875q-0.375 0.296875 -0.59375 1.09375q-0.21875 0.78125 -0.21875 3.296875l0 3.046875z" fill-rule="nonzero"></path><path fill="#000000" fill-opacity="0.0" d="m620.7244 198.19292l41.322815 0l0 40.0l-41.322815 0z" fill-rule="nonzero"></path><path fill="#000000" d="m633.5838 225.11292l-2.609375 0l0 -9.859375l2.421875 0l0 1.40625q0.625 -0.984375 1.109375 -1.296875q0.5 -0.328125 1.140625 -0.328125q0.890625 0 1.71875 0.5l-0.8125 2.265625q-0.65625 -0.421875 -1.21875 -0.421875q-0.546875 0 -0.9375 0.296875q-0.375 0.296875 -0.59375 1.09375q-0.21875 0.78125 -0.21875 3.296875l0 3.046875zm4.713379 -8.765625l0.046875 -2.53125l0.484375 -2.296875l2.84375 0l-0.5 2.296875l-0.953125 2.53125l-1.921875 0z" fill-rule="nonzero"></path><path fill="#000000" fill-opacity="0.0" d="m708.45404 150.19423l56.0 0l0 48.0l-56.0 0z" fill-rule="nonzero"></path><path fill="#000000" d="m731.6259 177.11423l-13.921875 0l6.6875 -13.109375l0.640625 0l6.59375 13.109375zm-3.515625 -0.765625l-4.578125 -9.078125l-4.609375 9.078125l9.1875 0zm8.67572 0.953125l-0.96875 4.0625l-1.328125 0l1.078125 -4.0625q-1.640625 -0.09375 -2.6875 -0.875q-1.03125 -0.796875 -1.03125 -2.328125q0 -1.625 0.890625 -2.9375q0.90625 -1.3125 2.296875 -2.015625q1.40625 -0.71875 2.984375 -0.796875l1.046875 -3.8125l0.5625 0l-0.828125 3.8125q1.609375 0.109375 2.734375 1.0q1.140625 0.875 1.140625 2.40625q0 2.359375 -1.75 3.890625q-1.75 1.53125 -4.140625 1.65625zm4.3125 -5.671875q0 -1.171875 -0.625 -1.890625q-0.625 -0.734375 -1.765625 -0.828125l-1.8125 7.84375q1.734375 -0.15625 2.96875 -1.75q1.234375 -1.609375 1.234375 -3.375zm-3.25 -2.71875q-1.828125 0.140625 -3.109375 1.671875q-1.265625 1.515625 -1.265625 3.375q0 1.140625 0.578125 1.921875q0.578125 0.78125 1.671875 0.875l2.125 -7.84375z" fill-rule="nonzero"></path><path fill="#000000" fill-opacity="0.0" d="m21.48819 22.1916l192.0 0l0 64.0l-192.0 0z" fill-rule="nonzero"></path><path fill="#000000" d="m31.347565 44.7366l1.6875 -0.140625q0.125 1.015625 0.5625 1.671875q0.4375 0.65625 1.359375 1.0625q0.9375 0.40625 2.09375 0.40625q1.03125 0 1.8125 -0.3125q0.796875 -0.3125 1.1875 -0.84375q0.390625 -0.53125 0.390625 -1.15625q0 -0.640625 -0.375 -1.109375q-0.375 -0.484375 -1.234375 -0.8125q-0.546875 -0.21875 -2.421875 -0.65625q-1.875 -0.453125 -2.625 -0.859375q-0.96875 -0.515625 -1.453125 -1.265625q-0.46875 -0.75 -0.46875 -1.6875q0 -1.03125 0.578125 -1.921875q0.59375 -0.90625 1.703125 -1.359375q1.125 -0.46875 2.5 -0.46875q1.515625 0 2.671875 0.484375q1.15625 0.484375 1.765625 1.4375q0.625 0.9375 0.671875 2.140625l-1.71875 0.125q-0.140625 -1.28125 -0.953125 -1.9375q-0.796875 -0.671875 -2.359375 -0.671875q-1.625 0 -2.375 0.609375q-0.75 0.59375 -0.75 1.4375q0 0.734375 0.53125 1.203125q0.515625 0.46875 2.703125 0.96875q2.203125 0.5 3.015625 0.875q1.1875 0.546875 1.75 1.390625q0.578125 0.828125 0.578125 1.921875q0 1.09375 -0.625 2.0625q-0.625 0.953125 -1.796875 1.484375q-1.15625 0.53125 -2.609375 0.53125q-1.84375 0 -3.09375 -0.53125q-1.25 -0.546875 -1.96875 -1.625q-0.703125 -1.078125 -0.734375 -2.453125zm12.849823 -7.3125l0 -1.90625l1.671875 0l0 1.90625l-1.671875 0zm0 11.6875l0 -9.859375l1.671875 0l0 9.859375l-1.671875 0zm4.129196 0l0 -9.859375l1.5 0l0 1.40625q1.09375 -1.625 3.140625 -1.625q0.890625 0 1.640625 0.328125q0.75 0.3125 1.109375 0.84375q0.375 0.515625 0.53125 1.21875q0.09375 0.46875 0.09375 1.625l0 6.0625l-1.671875 0l0 -6.0q0 -1.015625 -0.203125 -1.515625q-0.1875 -0.515625 -0.6875 -0.8125q-0.5 -0.296875 -1.171875 -0.296875q-1.0625 0 -1.84375 0.671875q-0.765625 0.671875 -0.765625 2.578125l0 5.375l-1.671875 0zm10.078842 0.8125l1.609375 0.25q0.109375 0.75 0.578125 1.09375q0.609375 0.453125 1.6875 0.453125q1.171875 0 1.796875 -0.46875q0.625 -0.453125 0.859375 -1.28125q0.125 -0.515625 0.109375 -2.15625q-1.09375 1.296875 -2.71875 1.296875q-2.03125 0 -3.15625 -1.46875q-1.109375 -1.46875 -1.109375 -3.515625q0 -1.40625 0.515625 -2.59375q0.515625 -1.203125 1.484375 -1.84375q0.96875 -0.65625 2.265625 -0.65625q1.75 0 2.875 1.40625l0 -1.1875l1.546875 0l0 8.515625q0 2.3125 -0.46875 3.265625q-0.46875 0.96875 -1.484375 1.515625q-1.015625 0.5625 -2.5 0.5625q-1.765625 0 -2.859375 -0.796875q-1.078125 -0.796875 -1.03125 -2.390625zm1.375 -5.921875q0 1.953125 0.765625 2.84375q0.78125 0.890625 1.9375 0.890625q1.140625 0 1.921875 -0.890625q0.78125 -0.890625 0.78125 -2.78125q0 -1.8125 -0.8125 -2.71875q-0.796875 -0.921875 -1.921875 -0.921875q-1.109375 0 -1.890625 0.90625q-0.78125 0.890625 -0.78125 2.671875zm9.266342 5.109375l0 -13.59375l1.671875 0l0 13.59375l-1.671875 0zm10.926071 -3.171875l1.71875 0.21875q-0.40625 1.5 -1.515625 2.34375q-1.09375 0.828125 -2.8125 0.828125q-2.15625 0 -3.421875 -1.328125q-1.265625 -1.328125 -1.265625 -3.734375q0 -2.484375 1.265625 -3.859375q1.28125 -1.375 3.328125 -1.375q1.984375 0 3.234375 1.34375q1.25 1.34375 1.25 3.796875q0 0.140625 -0.015625 0.4375l-7.34375 0q0.09375 1.625 0.921875 2.484375q0.828125 0.859375 2.0625 0.859375q0.90625 0 1.546875 -0.46875q0.65625 -0.484375 1.046875 -1.546875zm-5.484375 -2.703125l5.5 0q-0.109375 -1.234375 -0.625 -1.859375q-0.796875 -0.96875 -2.078125 -0.96875q-1.140625 0 -1.9375 0.78125q-0.78125 0.765625 -0.859375 2.046875zm20.684021 5.875l0 -1.25q-0.9375 1.46875 -2.75 1.46875q-1.171875 0 -2.171875 -0.640625q-0.984375 -0.65625 -1.53125 -1.8125q-0.53125 -1.171875 -0.53125 -2.6875q0 -1.46875 0.484375 -2.671875q0.5 -1.203125 1.46875 -1.84375q0.984375 -0.640625 2.203125 -0.640625q0.890625 0 1.578125 0.375q0.703125 0.375 1.140625 0.984375l0 -4.875l1.65625 0l0 13.59375l-1.546875 0zm-5.28125 -4.921875q0 1.890625 0.796875 2.828125q0.8125 0.9375 1.890625 0.9375q1.09375 0 1.859375 -0.890625q0.765625 -0.890625 0.765625 -2.734375q0 -2.015625 -0.78125 -2.953125q-0.78125 -0.953125 -1.921875 -0.953125q-1.109375 0 -1.859375 0.90625q-0.75 0.90625 -0.75 2.859375zm9.281967 -6.765625l0 -1.90625l1.671875 0l0 1.90625l-1.671875 0zm0 11.6875l0 -9.859375l1.671875 0l0 9.859375l-1.671875 0zm3.4573212 -2.9375l1.65625 -0.265625q0.140625 1.0 0.765625 1.53125q0.640625 0.515625 1.78125 0.515625q1.15625 0 1.703125 -0.46875q0.5625 -0.46875 0.5625 -1.09375q0 -0.5625 -0.484375 -0.890625q-0.34375 -0.21875 -1.703125 -0.5625q-1.84375 -0.46875 -2.5625 -0.796875q-0.703125 -0.34375 -1.078125 -0.9375q-0.359375 -0.609375 -0.359375 -1.328125q0 -0.65625 0.296875 -1.21875q0.3125 -0.5625 0.828125 -0.9375q0.390625 -0.28125 1.0625 -0.484375q0.671875 -0.203125 1.4375 -0.203125q1.171875 0 2.046875 0.34375q0.875 0.328125 1.28125 0.90625q0.421875 0.5625 0.578125 1.515625l-1.625 0.21875q-0.109375 -0.75 -0.65625 -1.171875q-0.53125 -0.4375 -1.5 -0.4375q-1.15625 0 -1.640625 0.390625q-0.484375 0.375 -0.484375 0.875q0 0.328125 0.203125 0.59375q0.203125 0.265625 0.640625 0.4375q0.25 0.09375 1.46875 0.4375q1.765625 0.46875 2.46875 0.765625q0.703125 0.296875 1.09375 0.875q0.40625 0.578125 0.40625 1.4375q0 0.828125 -0.484375 1.578125q-0.484375 0.734375 -1.40625 1.140625q-0.921875 0.390625 -2.078125 0.390625q-1.921875 0 -2.9375 -0.796875q-1.0 -0.796875 -1.28125 -2.359375zm10.0 6.71875l0 -13.640625l1.53125 0l0 1.28125q0.53125 -0.75 1.203125 -1.125q0.6875 -0.375 1.640625 -0.375q1.265625 0 2.234375 0.65625q0.96875 0.640625 1.453125 1.828125q0.5 1.1875 0.5 2.59375q0 1.515625 -0.546875 2.734375q-0.546875 1.203125 -1.578125 1.84375q-1.03125 0.640625 -2.171875 0.640625q-0.84375 0 -1.515625 -0.34375q-0.65625 -0.359375 -1.078125 -0.890625l0 4.796875l-1.671875 0zm1.515625 -8.65625q0 1.90625 0.765625 2.8125q0.78125 0.90625 1.875 0.90625q1.109375 0 1.890625 -0.9375q0.796875 -0.9375 0.796875 -2.921875q0 -1.875 -0.78125 -2.8125q-0.765625 -0.9375 -1.84375 -0.9375q-1.0625 0 -1.890625 1.0q-0.8125 1.0 -0.8125 2.890625zm8.828842 4.875l0 -13.59375l1.671875 0l0 13.59375l-1.671875 0zm10.613571 -1.21875q-0.9375 0.796875 -1.796875 1.125q-0.859375 0.3125 -1.84375 0.3125q-1.609375 0 -2.484375 -0.78125q-0.875 -0.796875 -0.875 -2.03125q0 -0.734375 0.328125 -1.328125q0.328125 -0.59375 0.859375 -0.953125q0.53125 -0.359375 1.203125 -0.546875q0.5 -0.140625 1.484375 -0.25q2.03125 -0.25 2.984375 -0.578125q0 -0.34375 0 -0.4375q0 -1.015625 -0.46875 -1.4375q-0.640625 -0.5625 -1.90625 -0.5625q-1.171875 0 -1.734375 0.40625q-0.5625 0.40625 -0.828125 1.46875l-1.640625 -0.234375q0.234375 -1.046875 0.734375 -1.6875q0.515625 -0.640625 1.46875 -0.984375q0.96875 -0.359375 2.25 -0.359375q1.265625 0 2.046875 0.296875q0.78125 0.296875 1.15625 0.75q0.375 0.453125 0.515625 1.140625q0.09375 0.421875 0.09375 1.53125l0 2.234375q0 2.328125 0.09375 2.953125q0.109375 0.609375 0.4375 1.171875l-1.75 0q-0.265625 -0.515625 -0.328125 -1.21875zm-0.140625 -3.71875q-0.90625 0.359375 -2.734375 0.625q-1.03125 0.140625 -1.453125 0.328125q-0.421875 0.1875 -0.65625 0.546875q-0.234375 0.359375 -0.234375 0.796875q0 0.671875 0.5 1.125q0.515625 0.4375 1.484375 0.4375q0.96875 0 1.71875 -0.421875q0.75 -0.4375 1.109375 -1.15625q0.265625 -0.578125 0.265625 -1.671875l0 -0.609375zm10.516342 1.328125l1.640625 0.21875q-0.265625 1.6875 -1.375 2.65625q-1.109375 0.953125 -2.734375 0.953125q-2.015625 0 -3.25 -1.3125q-1.21875 -1.328125 -1.21875 -3.796875q0 -1.59375 0.515625 -2.78125q0.53125 -1.203125 1.609375 -1.796875q1.09375 -0.609375 2.359375 -0.609375q1.609375 0 2.625 0.8125q1.015625 0.8125 1.3125 2.3125l-1.625 0.25q-0.234375 -1.0 -0.828125 -1.5q-0.59375 -0.5 -1.421875 -0.5q-1.265625 0 -2.0625 0.90625q-0.78125 0.90625 -0.78125 2.859375q0 1.984375 0.765625 2.890625q0.765625 0.890625 1.984375 0.890625q0.984375 0 1.640625 -0.59375q0.65625 -0.609375 0.84375 -1.859375zm9.640625 0.4375l1.71875 0.21875q-0.40625 1.5 -1.515625 2.34375q-1.09375 0.828125 -2.8125 0.828125q-2.15625 0 -3.421875 -1.328125q-1.265625 -1.328125 -1.265625 -3.734375q0 -2.484375 1.265625 -3.859375q1.28125 -1.375 3.328125 -1.375q1.984375 0 3.234375 1.34375q1.25 1.34375 1.25 3.796875q0 0.140625 -0.015625 0.4375l-7.34375 0q0.09375 1.625 0.921875 2.484375q0.828125 0.859375 2.0625 0.859375q0.90625 0 1.546875 -0.46875q0.65625 -0.484375 1.046875 -1.546875zm-5.484375 -2.703125l5.5 0q-0.109375 -1.234375 -0.625 -1.859375q-0.796875 -0.96875 -2.078125 -0.96875q-1.140625 0 -1.9375 0.78125q-0.78125 0.765625 -0.859375 2.046875zm9.110092 5.875l0 -9.859375l1.5 0l0 1.390625q0.453125 -0.71875 1.21875 -1.15625q0.78125 -0.453125 1.765625 -0.453125q1.09375 0 1.796875 0.453125q0.703125 0.453125 0.984375 1.28125q1.171875 -1.734375 3.046875 -1.734375q1.46875 0 2.25 0.8125q0.796875 0.8125 0.796875 2.5l0 6.765625l-1.671875 0l0 -6.203125q0 -1.0 -0.15625 -1.4375q-0.15625 -0.453125 -0.59375 -0.71875q-0.421875 -0.265625 -1.0 -0.265625q-1.03125 0 -1.71875 0.6875q-0.6875 0.6875 -0.6875 2.21875l0 5.71875l-1.671875 0l0 -6.40625q0 -1.109375 -0.40625 -1.65625q-0.40625 -0.5625 -1.34375 -0.5625q-0.703125 0 -1.3125 0.375q-0.59375 0.359375 -0.859375 1.078125q-0.265625 0.71875 -0.265625 2.0625l0 5.109375l-1.671875 0zm22.290802 -3.171875l1.71875 0.21875q-0.40625 1.5 -1.515625 2.34375q-1.09375 0.828125 -2.8125 0.828125q-2.15625 0 -3.421875 -1.328125q-1.265625 -1.328125 -1.265625 -3.734375q0 -2.484375 1.265625 -3.859375q1.28125 -1.375 3.328125 -1.375q1.984375 0 3.234375 1.34375q1.25 1.34375 1.25 3.796875q0 0.140625 -0.015625 0.4375l-7.34375 0q0.09375 1.625 0.921875 2.484375q0.828125 0.859375 2.0625 0.859375q0.90625 0 1.546875 -0.46875q0.65625 -0.484375 1.046875 -1.546875zm-5.484375 -2.703125l5.5 0q-0.109375 -1.234375 -0.625 -1.859375q-0.796875 -0.96875 -2.078125 -0.96875q-1.140625 0 -1.9375 0.78125q-0.78125 0.765625 -0.859375 2.046875zm9.110092 5.875l0 -9.859375l1.5 0l0 1.40625q1.09375 -1.625 3.140625 -1.625q0.890625 0 1.640625 0.328125q0.75 0.3125 1.109375 0.84375q0.375 0.515625 0.53125 1.21875q0.09375 0.46875 0.09375 1.625l0 6.0625l-1.671875 0l0 -6.0q0 -1.015625 -0.203125 -1.515625q-0.1875 -0.515625 -0.6875 -0.8125q-0.5 -0.296875 -1.171875 -0.296875q-1.0625 0 -1.84375 0.671875q-0.765625 0.671875 -0.765625 2.578125l0 5.375l-1.671875 0zm14.031967 -1.5l0.234375 1.484375q-0.703125 0.140625 -1.265625 0.140625q-0.90625 0 -1.40625 -0.28125q-0.5 -0.296875 -0.703125 -0.75q-0.203125 -0.46875 -0.203125 -1.984375l0 -5.65625l-1.234375 0l0 -1.3125l1.234375 0l0 -2.4375l1.65625 -1.0l0 3.4375l1.6875 0l0 1.3125l-1.6875 0l0 5.75q0 0.71875 0.078125 0.921875q0.09375 0.203125 0.296875 0.328125q0.203125 0.125 0.578125 0.125q0.265625 0 0.734375 -0.078125z" fill-rule="nonzero"></path><path fill="#000000" fill-opacity="0.0" d="m429.4882 22.194225l191.99997 0l0 48.000004l-191.99997 0z" fill-rule="nonzero"></path><path fill="#000000" d="m439.95694 49.114223l0 -13.59375l5.125 0q1.359375 0 2.078125 0.125q1.0 0.171875 1.671875 0.640625q0.671875 0.46875 1.078125 1.3125q0.421875 0.84375 0.421875 1.84375q0 1.734375 -1.109375 2.9375q-1.09375 1.203125 -3.984375 1.203125l-3.484375 0l0 5.53125l-1.796875 0zm1.796875 -7.140625l3.515625 0q1.75 0 2.46875 -0.640625q0.734375 -0.65625 0.734375 -1.828125q0 -0.859375 -0.4375 -1.46875q-0.421875 -0.609375 -1.125 -0.796875q-0.453125 -0.125 -1.671875 -0.125l-3.484375 0l0 4.859375zm10.443573 -4.546875l0 -1.90625l1.671875 0l0 1.90625l-1.671875 0zm0 11.6875l0 -9.859375l1.671875 0l0 9.859375l-1.671875 0zm6.863556 0l-3.75 -9.859375l1.765625 0l2.125 5.90625q0.34375 0.953125 0.625 1.984375q0.21875 -0.78125 0.625 -1.875l2.1875 -6.015625l1.71875 0l-3.734375 9.859375l-1.5625 0zm5.96875 -4.921875q0 -2.734375 1.53125 -4.0625q1.265625 -1.09375 3.09375 -1.09375q2.03125 0 3.3125 1.34375q1.296875 1.328125 1.296875 3.671875q0 1.90625 -0.578125 3.0q-0.5625 1.078125 -1.65625 1.6875q-1.078125 0.59375 -2.375 0.59375q-2.0625 0 -3.34375 -1.328125q-1.28125 -1.328125 -1.28125 -3.8125zm1.71875 0q0 1.890625 0.828125 2.828125q0.828125 0.9375 2.078125 0.9375q1.25 0 2.0625 -0.9375q0.828125 -0.953125 0.828125 -2.890625q0 -1.828125 -0.828125 -2.765625q-0.828125 -0.9375 -2.0625 -0.9375q-1.25 0 -2.078125 0.9375q-0.828125 0.9375 -0.828125 2.828125zm12.938232 3.421875l0.234375 1.484375q-0.703125 0.140625 -1.265625 0.140625q-0.90625 0 -1.40625 -0.28125q-0.5 -0.296875 -0.703125 -0.75q-0.203125 -0.46875 -0.203125 -1.984375l0 -5.65625l-1.234375 0l0 -1.3125l1.234375 0l0 -2.4375l1.65625 -1.0l0 3.4375l1.6875 0l0 1.3125l-1.6875 0l0 5.75q0 0.71875 0.078125 0.921875q0.09375 0.203125 0.296875 0.328125q0.203125 0.125 0.578125 0.125q0.265625 0 0.734375 -0.078125zm6.6947327 1.5l0 -9.859375l1.5 0l0 1.5q0.578125 -1.046875 1.0625 -1.375q0.484375 -0.34375 1.078125 -0.34375q0.84375 0 1.71875 0.546875l-0.578125 1.546875q-0.609375 -0.359375 -1.234375 -0.359375q-0.546875 0 -0.984375 0.328125q-0.421875 0.328125 -0.609375 0.90625q-0.28125 0.890625 -0.28125 1.953125l0 5.15625l-1.671875 0zm5.603302 -4.921875q0 -2.734375 1.53125 -4.0625q1.265625 -1.09375 3.09375 -1.09375q2.03125 0 3.3125 1.34375q1.296875 1.328125 1.296875 3.671875q0 1.90625 -0.578125 3.0q-0.5625 1.078125 -1.65625 1.6875q-1.078125 0.59375 -2.375 0.59375q-2.0625 0 -3.34375 -1.328125q-1.28125 -1.328125 -1.28125 -3.8125zm1.71875 0q0 1.890625 0.828125 2.828125q0.828125 0.9375 2.078125 0.9375q1.25 0 2.0625 -0.9375q0.828125 -0.953125 0.828125 -2.890625q0 -1.828125 -0.828125 -2.765625q-0.828125 -0.9375 -2.0625 -0.9375q-1.25 0 -2.078125 0.9375q-0.828125 0.9375 -0.828125 2.828125zm12.938202 3.421875l0.234375 1.484375q-0.703125 0.140625 -1.265625 0.140625q-0.90625 0 -1.40625 -0.28125q-0.5 -0.296875 -0.703125 -0.75q-0.203125 -0.46875 -0.203125 -1.984375l0 -5.65625l-1.234375 0l0 -1.3125l1.234375 0l0 -2.4375l1.65625 -1.0l0 3.4375l1.6875 0l0 1.3125l-1.6875 0l0 5.75q0 0.71875 0.078125 0.921875q0.09375 0.203125 0.296875 0.328125q0.203125 0.125 0.578125 0.125q0.265625 0 0.734375 -0.078125zm7.9645386 0.28125q-0.9375 0.796875 -1.796875 1.125q-0.8593445 0.3125 -1.8437195 0.3125q-1.609375 0 -2.484375 -0.78125q-0.875 -0.796875 -0.875 -2.03125q0 -0.734375 0.328125 -1.328125q0.328125 -0.59375 0.859375 -0.953125q0.53125 -0.359375 1.203125 -0.546875q0.5 -0.140625 1.484375 -0.25q2.0312195 -0.25 2.9843445 -0.578125q0 -0.34375 0 -0.4375q0 -1.015625 -0.46875 -1.4375q-0.640625 -0.5625 -1.90625 -0.5625q-1.1718445 0 -1.7343445 0.40625q-0.5625 0.40625 -0.828125 1.46875l-1.640625 -0.234375q0.234375 -1.046875 0.734375 -1.6875q0.515625 -0.640625 1.46875 -0.984375q0.96875 -0.359375 2.2499695 -0.359375q1.265625 0 2.046875 0.296875q0.78125 0.296875 1.15625 0.75q0.375 0.453125 0.515625 1.140625q0.09375 0.421875 0.09375 1.53125l0 2.234375q0 2.328125 0.09375 2.953125q0.109375 0.609375 0.4375 1.171875l-1.75 0q-0.265625 -0.515625 -0.328125 -1.21875zm-0.140625 -3.71875q-0.90625 0.359375 -2.7343445 0.625q-1.03125 0.140625 -1.453125 0.328125q-0.421875 0.1875 -0.65625 0.546875q-0.234375 0.359375 -0.234375 0.796875q0 0.671875 0.5 1.125q0.515625 0.4375 1.484375 0.4375q0.9687195 0 1.7187195 -0.421875q0.75 -0.4375 1.109375 -1.15625q0.265625 -0.578125 0.265625 -1.671875l0 -0.609375zm7.7351074 3.4375l0.234375 1.484375q-0.703125 0.140625 -1.265625 0.140625q-0.90625 0 -1.40625 -0.28125q-0.5 -0.296875 -0.703125 -0.75q-0.203125 -0.46875 -0.203125 -1.984375l0 -5.65625l-1.234375 0l0 -1.3125l1.234375 0l0 -2.4375l1.65625 -1.0l0 3.4375l1.6875 0l0 1.3125l-1.6875 0l0 5.75q0 0.71875 0.078125 0.921875q0.09375 0.203125 0.296875 0.328125q0.203125 0.125 0.578125 0.125q0.265625 0 0.734375 -0.078125zm1.5426636 -10.1875l0 -1.90625l1.671875 0l0 1.90625l-1.671875 0zm0 11.6875l0 -9.859375l1.671875 0l0 9.859375l-1.671875 0zm3.5042114 -4.921875q0 -2.734375 1.53125 -4.0625q1.265625 -1.09375 3.09375 -1.09375q2.03125 0 3.3125 1.34375q1.296875 1.328125 1.296875 3.671875q0 1.90625 -0.578125 3.0q-0.5625 1.078125 -1.65625 1.6875q-1.078125 0.59375 -2.375 0.59375q-2.0625 0 -3.34375 -1.328125q-1.28125 -1.328125 -1.28125 -3.8125zm1.71875 0q0 1.890625 0.828125 2.828125q0.828125 0.9375 2.078125 0.9375q1.25 0 2.0625 -0.9375q0.828125 -0.953125 0.828125 -2.890625q0 -1.828125 -0.828125 -2.765625q-0.828125 -0.9375 -2.0625 -0.9375q-1.25 0 -2.078125 0.9375q-0.828125 0.9375 -0.828125 2.828125zm9.281982 4.921875l0 -9.859375l1.5 0l0 1.40625q1.09375 -1.625 3.140625 -1.625q0.890625 0 1.640625 0.328125q0.75 0.3125 1.109375 0.84375q0.375 0.515625 0.53125 1.21875q0.09375 0.46875 0.09375 1.625l0 6.0625l-1.671875 0l0 -6.0q0 -1.015625 -0.203125 -1.515625q-0.1875 -0.515625 -0.6875 -0.8125q-0.5 -0.296875 -1.171875 -0.296875q-1.0625 0 -1.84375 0.671875q-0.765625 0.671875 -0.765625 2.578125l0 5.375l-1.671875 0z" fill-rule="nonzero"></path><path fill="#000000" fill-opacity="0.0" d="m660.7244 198.19292l0 0c0 -53.019333 10.745178 -96.0 24.0 -96.0l0 0c6.3651733 0 12.469666 10.11425 16.97052 28.117752c4.5009155 18.003479 7.02948 42.421463 7.02948 67.88225l0 0c0 53.019333 -10.745178 95.999985 -24.0 95.999985l0 0c-6.3652344 0 -12.469727 -10.114258 -16.970581 -28.117737c-4.5008545 -18.003494 -7.029419 -42.421463 -7.029419 -67.88225z" fill-rule="nonzero"></path><path stroke="#00ff00" stroke-width="2.0" stroke-linejoin="round" stroke-linecap="butt" d="m660.7244 198.19292l0 0c0 -53.019333 10.745178 -96.0 24.0 -96.0l0 0c6.3651733 0 12.469666 10.11425 16.97052 28.117752c4.5009155 18.003479 7.02948 42.421463 7.02948 67.88225l0 0c0 53.019333 -10.745178 95.999985 -24.0 95.999985l0 0c-6.3652344 0 -12.469727 -10.114258 -16.970581 -28.117737c-4.5008545 -18.003494 -7.029419 -42.421463 -7.029419 -67.88225z" fill-rule="nonzero"></path><path fill="#000000" fill-opacity="0.0" d="m684.7244 198.19292l0 -96.0" fill-rule="nonzero"></path><path stroke="#000000" stroke-width="2.0" stroke-linejoin="round" stroke-linecap="butt" d="m684.7244 198.19292l0 -84.0" fill-rule="evenodd"></path><path fill="#000000" stroke="#000000" stroke-width="2.0" stroke-linecap="butt" d="m688.0279 114.19291l-3.3034668 -9.076195l-3.3034668 9.076195z" fill-rule="evenodd"></path><path fill="#000000" fill-opacity="0.0" d="m684.7244 198.19292l24.0 48.0" fill-rule="nonzero"></path><path stroke="#000000" stroke-width="2.0" stroke-linejoin="round" stroke-linecap="butt" d="m684.7244 198.19292l18.633423 37.266876" fill-rule="evenodd"></path><path fill="#000000" stroke="#000000" stroke-width="2.0" stroke-linecap="butt" d="m700.40314 236.93715l7.013733 6.6406403l-1.1043091 -9.595352z" fill-rule="evenodd"></path><path fill="#000000" fill-opacity="0.0" d="m696.81104 142.19423c12.292725 21.512268 14.835083 50.494675 7.0 74.0" fill-rule="evenodd"></path><path stroke="#ff00ff" stroke-width="2.0" stroke-linejoin="round" stroke-linecap="butt" d="m696.81104 142.19423c6.1463013 10.756134 9.855164 23.379807 11.047974 36.252594c0.5963745 6.4364166 0.56378174 12.935104 -0.10760498 19.293762c-0.16784668 1.5896759 -0.3756714 3.1705933 -0.6234741 4.7395935c-0.06201172 0.39224243 -0.12646484 0.7837372 -0.19335938 1.1744537l-0.16235352 0.9106903" fill-rule="evenodd"></path><path fill="#ff00ff" stroke="#ff00ff" stroke-width="2.0" stroke-linecap="butt" d="m703.5709 203.75014l0.9616089 9.6107025l5.440979 -7.9803314z" fill-rule="evenodd"></path><path fill="#000000" fill-opacity="0.0" d="m683.0866 229.1693l0 0c7.932007 -11.193558 23.44342 -13.83049 34.64569 -5.8897705l0 0c5.3795166 3.8132782 9.025513 9.605698 10.135986 16.103027c1.1104126 6.4973297 -0.40563965 13.167313 -4.2147217 18.542648l0 0c-7.932068 11.1935425 -23.44342 13.830475 -34.64569 5.8897705l0 0c-11.2022705 -7.940735 -13.8532715 -23.452133 -5.9212646 -34.645676z" fill-rule="nonzero"></path><path stroke="#ff0000" stroke-width="3.0" stroke-linejoin="round" stroke-linecap="butt" stroke-dasharray="12.0,9.0" d="m683.0866 229.1693l0 0c7.932007 -11.193558 23.44342 -13.83049 34.64569 -5.8897705l0 0c5.3795166 3.8132782 9.025513 9.605698 10.135986 16.103027c1.1104126 6.4973297 -0.40563965 13.167313 -4.2147217 18.542648l0 0c-7.932068 11.1935425 -23.44342 13.830475 -34.64569 5.8897705l0 0c-11.2022705 -7.940735 -13.8532715 -23.452133 -5.9212646 -34.645676z" fill-rule="nonzero"></path><path fill="#000000" fill-opacity="0.0" d="m660.45404 134.19423l48.0 0l0 40.0l-48.0 0z" fill-rule="nonzero"></path><path fill="#000000" d="m673.3134 161.11423l-2.609375 0l0 -9.859375l2.421875 0l0 1.40625q0.625 -0.984375 1.109375 -1.296875q0.5 -0.328125 1.140625 -0.328125q0.890625 0 1.71875 0.5l-0.8125 2.265625q-0.65625 -0.421875 -1.21875 -0.421875q-0.546875 0 -0.9375 0.296875q-0.375 0.296875 -0.59375 1.09375q-0.21875 0.78125 -0.21875 3.296875l0 3.046875z" fill-rule="nonzero"></path><path fill="#000000" fill-opacity="0.0" d="m660.7244 198.19292l64.0 0l0 40.0l-64.0 0z" fill-rule="nonzero"></path><path fill="#000000" d="m673.5838 225.11292l-2.609375 0l0 -9.859375l2.421875 0l0 1.40625q0.625 -0.984375 1.109375 -1.296875q0.5 -0.328125 1.140625 -0.328125q0.890625 0 1.71875 0.5l-0.8125 2.265625q-0.65625 -0.421875 -1.21875 -0.421875q-0.546875 0 -0.9375 0.296875q-0.375 0.296875 -0.59375 1.09375q-0.21875 0.78125 -0.21875 3.296875l0 3.046875zm4.713379 -8.765625l0.046875 -2.53125l0.484375 -2.296875l2.84375 0l-0.5 2.296875l-0.953125 2.53125l-1.921875 0z" fill-rule="nonzero"></path><path fill="#000000" fill-opacity="0.0" d="m678.6309 222.18898l0 8.503937" fill-rule="nonzero"></path><path stroke="#000000" stroke-width="1.0" stroke-linejoin="round" stroke-linecap="butt" d="m678.6309 222.18898l0 8.503937" fill-rule="nonzero"></path><path fill="#000000" fill-opacity="0.0" d="m682.63257 230.68767l-8.0 0" fill-rule="nonzero"></path><path stroke="#000000" stroke-width="1.0" stroke-linejoin="round" stroke-linecap="butt" d="m682.63257 230.68767l-8.0 0" fill-rule="nonzero"></path><path fill="#000000" fill-opacity="0.0" d="m678.63354 157.69029l0 8.503937" fill-rule="nonzero"></path><path stroke="#000000" stroke-width="1.0" stroke-linejoin="round" stroke-linecap="butt" d="m678.63354 157.69029l0 8.503937" fill-rule="nonzero"></path><path fill="#000000" fill-opacity="0.0" d="m682.63257 166.19423l-8.0 0" fill-rule="nonzero"></path><path stroke="#000000" stroke-width="1.0" stroke-linejoin="round" stroke-linecap="butt" d="m682.63257 166.19423l-8.0 0" fill-rule="nonzero"></path></g></svg>

