<?xml version="1.0" standalone="yes"?>

<svg version="1.1" viewBox="0.0 0.0 961.0 408.0" fill="none" stroke="none" stroke-linecap="square" stroke-miterlimit="10" xmlns="http://www.w3.org/2000/svg" xmlns:xlink="http://www.w3.org/1999/xlink"><clipPath id="p.0"><path d="m0 0l961.0 0l0 408.0l-961.0 0l0 -408.0z" clip-rule="nonzero"></path></clipPath><g clip-path="url(#p.0)"><path fill="#000000" fill-opacity="0.0" d="m0 0l961.0 0l0 408.0l-961.0 0z" fill-rule="nonzero"></path><path stroke="#000000" stroke-width="3.0" stroke-linecap="butt" d="m16.299213 22.501312l0 273.17584" fill-rule="nonzero"></path><path stroke="#000000" stroke-width="3.0" stroke-linecap="butt" d="m274.5643 22.501312l0 273.17584" fill-rule="nonzero"></path><path stroke="#000000" stroke-width="3.0" stroke-linecap="butt" d="m14.800525 24.0l261.26245 0" fill-rule="nonzero"></path><path stroke="#000000" stroke-width="3.0" stroke-linecap="butt" d="m14.800525 294.17847l261.26245 0" fill-rule="nonzero"></path><path stroke="#000000" stroke-width="3.0" stroke-linecap="butt" d="m351.04462 22.501312l0 273.17584" fill-rule="nonzero"></path><path stroke="#000000" stroke-width="3.0" stroke-linecap="butt" d="m617.8084 22.501312l0 273.17584" fill-rule="nonzero"></path><path stroke="#000000" stroke-width="3.0" stroke-linecap="butt" d="m349.54593 24.0l269.76114 0" fill-rule="nonzero"></path><path stroke="#000000" stroke-width="3.0" stroke-linecap="butt" d="m349.54593 294.17847l269.76114 0" fill-rule="nonzero"></path><path stroke="#000000" stroke-width="3.0" stroke-linecap="butt" d="m683.77167 22.501312l0 273.17584" fill-rule="nonzero"></path><path stroke="#000000" stroke-width="3.0" stroke-linecap="butt" d="m945.5381 22.501312l0 273.17584" fill-rule="nonzero"></path><path stroke="#000000" stroke-width="3.0" stroke-linecap="butt" d="m682.27295 24.0l264.7638 0" fill-rule="nonzero"></path><path stroke="#000000" stroke-width="3.0" stroke-linecap="butt" d="m682.27295 294.17847l264.7638 0" fill-rule="nonzero"></path><path fill="#000000" d="m693.8498 50.524376l2.140625 -0.1875q0.15625 1.28125 0.703125 2.109375q0.5625 0.828125 1.734375 1.34375q1.171875 0.5 2.640625 0.5q1.296875 0 2.296875 -0.375q1.0 -0.390625 1.484375 -1.0625q0.484375 -0.6875 0.484375 -1.484375q0 -0.796875 -0.46875 -1.40625q-0.46875 -0.609375 -1.546875 -1.015625q-0.6875 -0.265625 -3.0625 -0.828125q-2.359375 -0.578125 -3.3125 -1.078125q-1.234375 -0.640625 -1.84375 -1.59375q-0.59375 -0.96875 -0.59375 -2.140625q0 -1.3125 0.734375 -2.4375q0.75 -1.125 2.15625 -1.703125q1.421875 -0.59375 3.15625 -0.59375q1.90625 0 3.359375 0.609375q1.46875 0.609375 2.25 1.8125q0.796875 1.1875 0.84375 2.703125l-2.171875 0.171875q-0.171875 -1.640625 -1.1875 -2.46875q-1.015625 -0.828125 -3.0 -0.828125q-2.0625 0 -3.015625 0.765625q-0.9375 0.75 -0.9375 1.8125q0 0.921875 0.671875 1.515625q0.65625 0.609375 3.421875 1.234375q2.78125 0.625 3.8125 1.09375q1.5 0.6875 2.203125 1.75q0.71875 1.0625 0.71875 2.4375q0 1.375 -0.78125 2.59375q-0.78125 1.203125 -2.25 1.890625q-1.46875 0.671875 -3.3125 0.671875q-2.328125 0 -3.90625 -0.671875q-1.578125 -0.6875 -2.484375 -2.046875q-0.890625 -1.375 -0.9375 -3.09375zm20.539062 10.5625q-1.734375 -2.203125 -2.953125 -5.15625q-1.203125 -2.953125 -1.203125 -6.109375q0 -2.796875 0.90625 -5.34375q1.046875 -2.96875 3.25 -5.90625l1.515625 0q-1.421875 2.4375 -1.875 3.46875q-0.71875 1.625 -1.125 3.375q-0.5 2.203125 -0.5 4.40625q0 5.640625 3.5 11.265625l-1.515625 0zm4.2890625 -5.046875l0 -17.1875l12.421875 0l0 2.03125l-10.15625 0l0 5.265625l9.5 0l0 2.015625l-9.5 0l0 5.84375l10.546875 0l0 2.03125l-12.8125 0zm17.070312 5.046875l-1.515625 0q3.5 -5.625 3.5 -11.265625q0 -2.203125 -0.5 -4.359375q-0.390625 -1.765625 -1.109375 -3.375q-0.453125 -1.0625 -1.890625 -3.515625l1.515625 0q2.203125 2.9375 3.25 5.90625q0.90625 2.546875 0.90625 5.34375q0 3.15625 -1.21875 6.109375q-1.203125 2.953125 -2.9375 5.15625z" fill-rule="nonzero"></path><path fill="#000000" fill-opacity="0.0" d="m40.0 266.17847l0 -200.0" fill-rule="nonzero"></path><path stroke="#000000" stroke-width="1.0" stroke-linejoin="round" stroke-linecap="butt" d="m40.0 266.17847l0 -194.0" fill-rule="evenodd"></path><path fill="#000000" stroke="#000000" stroke-width="1.0" stroke-linecap="butt" d="m41.651733 72.178474l-1.6517334 -4.5380936l-1.6517334 4.5380936z" fill-rule="evenodd"></path><path fill="#000000" fill-opacity="0.0" d="m40.0 266.17847l192.0 0" fill-rule="nonzero"></path><path stroke="#000000" stroke-width="1.0" stroke-linejoin="round" stroke-linecap="butt" d="m40.0 266.17847l186.0 0" fill-rule="evenodd"></path><path fill="#000000" stroke="#000000" stroke-width="1.0" stroke-linecap="butt" d="m226.0 267.8302l4.538101 -1.6517334l-4.538101 -1.6517334z" fill-rule="evenodd"></path><path fill="#000000" fill-opacity="0.0" d="m376.0 266.17847l0 -200.0" fill-rule="nonzero"></path><path stroke="#000000" stroke-width="1.0" stroke-linejoin="round" stroke-linecap="butt" d="m376.0 266.17847l0 -194.0" fill-rule="evenodd"></path><path fill="#000000" stroke="#000000" stroke-width="1.0" stroke-linecap="butt" d="m377.65173 72.178474l-1.6517334 -4.5380936l-1.6517334 4.5380936z" fill-rule="evenodd"></path><path fill="#000000" fill-opacity="0.0" d="m376.0 266.17847l192.0 0" fill-rule="nonzero"></path><path stroke="#000000" stroke-width="1.0" stroke-linejoin="round" stroke-linecap="butt" d="m376.0 266.17847l186.0 0" fill-rule="evenodd"></path><path fill="#000000" stroke="#000000" stroke-width="1.0" stroke-linecap="butt" d="m562.0 267.8302l4.538086 -1.6517334l-4.538086 -1.6517334z" fill-rule="evenodd"></path><path fill="#000000" fill-opacity="0.0" d="m712.0 266.17847l0 -200.0" fill-rule="nonzero"></path><path stroke="#000000" stroke-width="1.0" stroke-linejoin="round" stroke-linecap="butt" d="m712.0 266.17847l0 -194.0" fill-rule="evenodd"></path><path fill="#000000" stroke="#000000" stroke-width="1.0" stroke-linecap="butt" d="m713.65173 72.178474l-1.6517334 -4.5380936l-1.6517334 4.5380936z" fill-rule="evenodd"></path><path fill="#000000" fill-opacity="0.0" d="m712.0 266.17847l192.0 0" fill-rule="nonzero"></path><path stroke="#000000" stroke-width="1.0" stroke-linejoin="round" stroke-linecap="butt" d="m712.0 266.17847l186.0 0" fill-rule="evenodd"></path><path fill="#000000" stroke="#000000" stroke-width="1.0" stroke-linecap="butt" d="m898.0 267.8302l4.538086 -1.6517334l-4.538086 -1.6517334z" fill-rule="evenodd"></path><path fill="#000000" fill-opacity="0.0" d="m16.0 26.178478l112.0 0l0 39.999996l-112.0 0z" fill-rule="nonzero"></path><path fill="#000000" d="m26.578125 58.21848l0 -17.1875l2.109375 0l0 6.171875q1.484375 -1.71875 3.734375 -1.71875q1.375 0 2.390625 0.546875q1.03125 0.546875 1.46875 1.515625q0.4375 0.953125 0.4375 2.78125l0 7.890625l-2.109375 0l0 -7.890625q0 -1.578125 -0.6875 -2.296875q-0.6875 -0.71875 -1.9375 -0.71875q-0.9375 0 -1.765625 0.484375q-0.828125 0.484375 -1.1875 1.3125q-0.34375 0.828125 -0.34375 2.296875l0 6.8125l-2.109375 0zm17.378906 5.046875q-1.734375 -2.203125 -2.953125 -5.15625q-1.203125 -2.953125 -1.203125 -6.109375q0 -2.796875 0.90625 -5.34375q1.046875 -2.96875 3.25 -5.90625l1.515625 0q-1.421875 2.4375 -1.875 3.46875q-0.71875 1.625 -1.125 3.375q-0.5 2.203125 -0.5 4.40625q0 5.640625 3.5 11.265625l-1.515625 0zm4.2890625 -5.046875l0 -17.1875l12.421875 0l0 2.03125l-10.15625 0l0 5.265625l9.5 0l0 2.015625l-9.5 0l0 5.84375l10.546875 0l0 2.03125l-12.8125 0zm17.070312 5.046875l-1.515625 0q3.5 -5.625 3.5 -11.265625q0 -2.203125 -0.5 -4.359375q-0.390625 -1.765625 -1.109375 -3.375q-0.453125 -1.0625 -1.890625 -3.515625l1.515625 0q2.203125 2.9375 3.25 5.90625q0.90625 2.546875 0.90625 5.34375q0 3.15625 -1.21875 6.109375q-1.203125 2.953125 -2.9375 5.15625z" fill-rule="nonzero"></path><path fill="#000000" fill-opacity="0.0" d="m351.04462 26.178478l72.0 0l0 55.999996l-72.0 0z" fill-rule="nonzero"></path><path fill="#000000" d="m361.12274 52.702854l2.140625 -0.1875q0.15625 1.28125 0.703125 2.109375q0.5625 0.828125 1.734375 1.34375q1.171875 0.5 2.640625 0.5q1.296875 0 2.296875 -0.375q1.0 -0.390625 1.484375 -1.0625q0.484375 -0.6875 0.484375 -1.484375q0 -0.796875 -0.46875 -1.40625q-0.46875 -0.609375 -1.546875 -1.015625q-0.6875 -0.265625 -3.0625 -0.828125q-2.359375 -0.578125 -3.3125 -1.078125q-1.234375 -0.640625 -1.84375 -1.59375q-0.59375 -0.96875 -0.59375 -2.140625q0 -1.3125 0.734375 -2.4375q0.75 -1.125 2.15625 -1.703125q1.421875 -0.59375 3.15625 -0.59375q1.90625 0 3.359375 0.609375q1.46875 0.609375 2.25 1.8125q0.796875 1.1875 0.84375 2.703125l-2.171875 0.171875q-0.171875 -1.640625 -1.1875 -2.46875q-1.015625 -0.828125 -3.0 -0.828125q-2.0625 0 -3.015625 0.765625q-0.9375 0.75 -0.9375 1.8125q0 0.921875 0.671875 1.515625q0.65625 0.609375 3.421875 1.234375q2.78125 0.625 3.8125 1.09375q1.5 0.6875 2.203125 1.75q0.71875 1.0625 0.71875 2.4375q0 1.375 -0.78125 2.59375q-0.78125 1.203125 -2.25 1.890625q-1.46875 0.671875 -3.3125 0.671875q-2.328125 0 -3.90625 -0.671875q-1.578125 -0.6875 -2.484375 -2.046875q-0.890625 -1.375 -0.9375 -3.09375zm20.539062 10.5625q-1.734375 -2.203125 -2.953125 -5.15625q-1.203125 -2.953125 -1.203125 -6.109375q0 -2.796875 0.90625 -5.34375q1.046875 -2.96875 3.25 -5.90625l1.515625 0q-1.421875 2.4375 -1.875 3.46875q-0.71875 1.625 -1.125 3.375q-0.5 2.203125 -0.5 4.40625q0 5.640625 3.5 11.265625l-1.515625 0zm4.2890625 -5.046875l0 -17.1875l12.421875 0l0 2.03125l-10.15625 0l0 5.265625l9.5 0l0 2.015625l-9.5 0l0 5.84375l10.546875 0l0 2.03125l-12.8125 0zm17.070312 5.046875l-1.515625 0q3.5 -5.625 3.5 -11.265625q0 -2.203125 -0.5 -4.359375q-0.390625 -1.765625 -1.109375 -3.375q-0.453125 -1.0625 -1.890625 -3.515625l1.515625 0q2.203125 2.9375 3.25 5.90625q0.90625 2.546875 0.90625 5.34375q0 3.15625 -1.21875 6.109375q-1.203125 2.953125 -2.9375 5.15625z" fill-rule="nonzero"></path><path fill="#000000" fill-opacity="0.0" d="m384.5118 249.83296c0 -26.733627 17.930756 -54.543625 43.39734 -73.44716" fill-rule="evenodd"></path><path stroke="#ff0000" stroke-width="2.0" stroke-linejoin="round" stroke-linecap="butt" d="m384.5118 249.83296c0 -26.733627 17.930756 -54.543625 43.39734 -73.44716" fill-rule="evenodd"></path><path fill="#000000" fill-opacity="0.0" d="m889.9921 124.286c-24.797485 -1.9111099 -49.676575 9.022163 -71.7428 20.496056c-43.048218 22.384033 -89.84442 57.13449 -101.63776 104.19948" fill-rule="evenodd"></path><path stroke="#000000" stroke-width="2.0" stroke-linejoin="round" stroke-linecap="butt" d="m889.9921 124.286c-24.797485 -1.9111099 -49.676575 9.022163 -71.7428 20.496056c-43.048218 22.384033 -89.84442 57.13449 -101.63776 104.19948" fill-rule="evenodd"></path><path fill="#000000" fill-opacity="0.0" d="m66.52158 128.56168c-9.122517 13.66095 -6.9236336 82.55444 -13.181778 115.38132c-3.7812042 19.834167 -10.903072 22.23111 -16.712502 22.23111" fill-rule="evenodd"></path><path stroke="#ff0000" stroke-width="2.0" stroke-linejoin="round" stroke-linecap="butt" d="m66.52158 128.56168c-9.122517 13.66095 -6.9236336 82.55444 -13.181778 115.38132c-3.7812042 19.834167 -10.903072 22.23111 -16.712502 22.23111" fill-rule="evenodd"></path><path fill="#000000" fill-opacity="0.0" d="m66.51523 128.56168c9.392799 0 7.116493 64.21887 10.605812 96.43094c2.9972076 27.669098 13.415123 41.18512 21.483223 41.18512" fill-rule="evenodd"></path><path stroke="#ff0000" stroke-width="2.0" stroke-linejoin="round" stroke-linecap="butt" d="m66.51523 128.56168c9.392799 0 7.116493 64.21887 10.605812 96.43094c2.9972076 27.669098 13.415123 41.18512 21.483223 41.18512" fill-rule="evenodd"></path><path fill="#000000" fill-opacity="0.0" d="m98.63555 145.63518c-15.269295 11.9657135 -11.5887985 72.31006 -22.063698 101.06337c-6.3289948 17.372894 -18.249592 19.472412 -27.973427 19.472412" fill-rule="evenodd"></path><path stroke="#00ff00" stroke-width="2.0" stroke-linejoin="round" stroke-linecap="butt" d="m98.63555 145.63518c-15.269295 11.9657135 -11.5887985 72.31006 -22.063698 101.06337c-6.3289948 17.372894 -18.249592 19.472412 -27.973427 19.472412" fill-rule="evenodd"></path><path fill="#000000" fill-opacity="0.0" d="m98.6218 145.63518c13.608345 0 10.310417 56.252243 15.365768 84.46828c4.3423767 24.236633 19.43592 36.075928 31.125038 36.075928" fill-rule="evenodd"></path><path stroke="#00ff00" stroke-width="2.0" stroke-linejoin="round" stroke-linecap="butt" d="m98.6218 145.63518c13.608345 0 10.310417 56.252243 15.365768 84.46828c4.3423767 24.236633 19.43592 36.075928 31.125038 36.075928" fill-rule="evenodd"></path><path fill="#000000" fill-opacity="0.0" d="m139.08488 155.14699c-17.718735 11.022217 -13.447823 66.60838 -25.603073 93.09448c-7.344261 16.003036 -21.177116 17.936996 -32.460815 17.936996" fill-rule="evenodd"></path><path stroke="#0000ff" stroke-width="2.0" stroke-linejoin="round" stroke-linecap="butt" d="m139.08488 155.14699c-17.718735 11.022217 -13.447823 66.60838 -25.603073 93.09448c-7.344261 16.003036 -21.177116 17.936996 -32.460815 17.936996" fill-rule="evenodd"></path><path fill="#000000" fill-opacity="0.0" d="m139.07721 155.14699c15.791351 0 11.964371 51.813004 17.830688 77.80232c5.038971 22.32396 22.553757 33.228943 36.117996 33.228943" fill-rule="evenodd"></path><path stroke="#0000ff" stroke-width="2.0" stroke-linejoin="round" stroke-linecap="butt" d="m139.07721 155.14699c15.791351 0 11.964371 51.813004 17.830688 77.80232c5.038971 22.32396 22.553757 33.228943 36.117996 33.228943" fill-rule="evenodd"></path><path fill="#000000" fill-opacity="0.0" d="m174.7071 167.84492c-14.253113 9.761276 -10.817551 58.988403 -20.595337 82.44449c-5.907791 14.172287 -17.035065 15.8849945 -26.11177 15.8849945" fill-rule="evenodd"></path><path stroke="#ff00ff" stroke-width="2.0" stroke-linejoin="round" stroke-linecap="butt" d="m174.7071 167.84492c-14.253113 9.761276 -10.817551 58.988403 -20.595337 82.44449c-5.907791 14.172287 -17.035065 15.8849945 -26.11177 15.8849945" fill-rule="evenodd"></path><path fill="#000000" fill-opacity="0.0" d="m174.69983 167.84492c12.702698 0 9.624252 45.888565 14.343155 68.90619c4.0533905 19.771378 18.14244 29.429428 29.053635 29.429428" fill-rule="evenodd"></path><path stroke="#ff00ff" stroke-width="2.0" stroke-linejoin="round" stroke-linecap="butt" d="m174.69983 167.84492c12.702698 0 9.624252 45.888565 14.343155 68.90619c4.0533905 19.771378 18.14244 29.429428 29.053635 29.429428" fill-rule="evenodd"></path><path fill="#000000" fill-opacity="0.0" d="m425.3386 215.43439c9.968445 -26.596191 35.9787 -47.52736 62.34906 -58.07875" fill-rule="evenodd"></path><path stroke="#00ff00" stroke-width="2.0" stroke-linejoin="round" stroke-linecap="butt" d="m425.3386 215.43439c9.968445 -26.596191 35.9787 -47.52736 62.34906 -58.07875" fill-rule="evenodd"></path><path fill="#000000" fill-opacity="0.0" d="m445.15222 167.84526c23.732422 -25.334671 52.77237 -46.272957 83.69855 -53.808517" fill-rule="evenodd"></path><path stroke="#0000ff" stroke-width="2.0" stroke-linejoin="round" stroke-linecap="butt" d="m445.15222 167.84526c23.732422 -25.334671 52.77237 -46.272957 83.69855 -53.808517" fill-rule="evenodd"></path><path fill="#000000" fill-opacity="0.0" d="m479.3176 111.47507c28.275879 -15.227539 61.834625 -21.354332 93.9501 -21.354332" fill-rule="evenodd"></path><path stroke="#ff00ff" stroke-width="2.0" stroke-linejoin="round" stroke-linecap="butt" d="m479.3176 111.47507c28.275879 -15.227539 61.834625 -21.354332 93.9501 -21.354332" fill-rule="evenodd"></path><path fill="#000000" fill-opacity="0.0" d="m230.41733 237.13911l85.25983 0l0 58.07872l-85.25983 0z" fill-rule="nonzero"></path><path fill="#000000" d="m241.32358 269.1791l0 -17.1875l12.421875 0l0 2.03125l-10.15625 0l0 5.265625l9.5 0l0 2.015625l-9.5 0l0 5.84375l10.546875 0l0 2.03125l-12.8125 0z" fill-rule="nonzero"></path><path fill="#000000" fill-opacity="0.0" d="m564.916 237.13911l85.25983 0l0 58.07872l-85.25983 0z" fill-rule="nonzero"></path><path fill="#000000" d="m575.82227 269.1791l0 -17.1875l12.421875 0l0 2.03125l-10.15625 0l0 5.265625l9.5 0l0 2.015625l-9.5 0l0 5.84375l10.546875 0l0 2.03125l-12.8125 0z" fill-rule="nonzero"></path><path fill="#000000" fill-opacity="0.0" d="m900.3543 237.13911l85.25989 0l0 58.07872l-85.25989 0z" fill-rule="nonzero"></path><path fill="#000000" d="m911.26056 269.1791l0 -17.1875l12.421875 0l0 2.03125l-10.15625 0l0 5.265625l9.5 0l0 2.015625l-9.5 0l0 5.84375l10.546875 0l0 2.03125l-12.8125 0z" fill-rule="nonzero"></path><path fill="#000000" fill-opacity="0.0" d="m52.95538 85.90551l50.047245 0l0 40.0l-50.047245 0z" fill-rule="nonzero"></path><path fill="#000000" d="m63.20538 112.82551l0 -13.59375l1.6718788 0l0 4.875q1.171875 -1.359375 2.953125 -1.359375q1.09375 0 1.890625 0.4375q0.8125 0.421875 1.15625 1.1875q0.359375 0.765625 0.359375 2.203125l0 6.25l-1.671875 0l0 -6.25q0 -1.25 -0.546875 -1.8125q-0.546875 -0.578125 -1.53125 -0.578125q-0.75 0 -1.40625 0.390625q-0.640625 0.375 -0.921875 1.046875q-0.28125 0.65625 -0.28125 1.8125l0 5.390625l-1.6718788 0z" fill-rule="nonzero"></path><path fill="#000000" d="m76.79985 119.82551l-1.046875 0l0 -6.71875q-0.390625 0.359375 -1.015625 0.734375q-0.609375 0.359375 -1.09375 0.53125l0 -1.015625q0.875 -0.421875 1.53125 -1.0q0.671875 -0.59375 0.953125 -1.15625l0.671875 0l0 8.625z" fill-rule="nonzero"></path><path fill="#000000" fill-opacity="0.0" d="m85.02887 105.63517l50.04724 0l0 40.000008l-50.04724 0z" fill-rule="nonzero"></path><path fill="#000000" d="m95.27887 132.55518l0 -13.593758l1.671875 0l0 4.875q1.171875 -1.359375 2.953125 -1.359375q1.09375 0 1.890625 0.4375q0.8125 0.421875 1.15625 1.1875q0.359375 0.765625 0.359375 2.203125l0 6.2500076l-1.671875 0l0 -6.2500076q0 -1.25 -0.546875 -1.8125q-0.546875 -0.578125 -1.53125 -0.578125q-0.75 0 -1.40625 0.390625q-0.640625 0.375 -0.921875 1.046875q-0.28125 0.65625 -0.28125 1.8125l0 5.3906326l-1.671875 0z" fill-rule="nonzero"></path><path fill="#000000" d="m110.45146 138.53955l0 1.015625l-5.6875 0q0 -0.375 0.125 -0.734375q0.21875 -0.578125 0.6875 -1.140625q0.484375 -0.5625 1.390625 -1.296875q1.40625 -1.15625 1.890625 -1.828125q0.5 -0.671875 0.5 -1.265625q0 -0.625 -0.453125 -1.046875q-0.453125 -0.4375 -1.171875 -0.4375q-0.765625 0 -1.21875 0.453125q-0.453125 0.453125 -0.46875 1.265625l-1.078125 -0.109375q0.109375 -1.21875 0.828125 -1.84375q0.734375 -0.640625 1.96875 -0.640625q1.234375 0 1.953125 0.6875q0.71875 0.6875 0.71875 1.703125q0 0.515625 -0.21875 1.015625q-0.203125 0.484375 -0.703125 1.046875q-0.484375 0.546875 -1.609375 1.5q-0.953125 0.796875 -1.234375 1.09375q-0.265625 0.28125 -0.4375 0.5625l4.21875 0z" fill-rule="nonzero"></path><path fill="#000000" fill-opacity="0.0" d="m125.11811 114.03674l50.04725 0l0 40.0l-50.04725 0z" fill-rule="nonzero"></path><path fill="#000000" d="m135.3681 140.95674l0 -13.59375l1.671875 0l0 4.875q1.171875 -1.359375 2.953125 -1.359375q1.09375 0 1.890625 0.4375q0.8125 0.421875 1.15625 1.1875q0.359375 0.765625 0.359375 2.203125l0 6.25l-1.671875 0l0 -6.25q0 -1.25 -0.546875 -1.8125q-0.546875 -0.578125 -1.53125 -0.578125q-0.75 0 -1.40625 0.390625q-0.640625 0.375 -0.921875 1.046875q-0.28125 0.65625 -0.28125 1.8125l0 5.390625l-1.671875 0z" fill-rule="nonzero"></path><path fill="#000000" d="m144.99382 145.69112l1.0625 -0.140625q0.171875 0.890625 0.609375 1.296875q0.4375 0.390625 1.0625 0.390625q0.75 0 1.265625 -0.515625q0.515625 -0.515625 0.515625 -1.28125q0 -0.71875 -0.484375 -1.1875q-0.46875 -0.484375 -1.203125 -0.484375q-0.296875 0 -0.75 0.125l0.125 -0.9375q0.109375 0.015625 0.171875 0.015625q0.671875 0 1.203125 -0.34375q0.546875 -0.359375 0.546875 -1.09375q0 -0.578125 -0.390625 -0.953125q-0.390625 -0.390625 -1.015625 -0.390625q-0.609375 0 -1.03125 0.390625q-0.40625 0.390625 -0.515625 1.15625l-1.0625 -0.1875q0.1875 -1.046875 0.875 -1.625q0.6875 -0.59375 1.703125 -0.59375q0.703125 0 1.296875 0.3125q0.59375 0.296875 0.90625 0.8125q0.3125 0.515625 0.3125 1.109375q0 0.546875 -0.296875 1.015625q-0.296875 0.453125 -0.875 0.71875q0.75 0.171875 1.171875 0.734375q0.421875 0.546875 0.421875 1.390625q0 1.125 -0.828125 1.90625q-0.8125 0.78125 -2.0625 0.78125q-1.125 0 -1.875 -0.671875q-0.75 -0.6875 -0.859375 -1.75z" fill-rule="nonzero"></path><path fill="#000000" fill-opacity="0.0" d="m159.75984 128.56168l50.04724 0l0 40.0l-50.04724 0z" fill-rule="nonzero"></path><path fill="#000000" d="m170.00984 155.48167l0 -13.59375l1.671875 0l0 4.875q1.171875 -1.359375 2.953125 -1.359375q1.09375 0 1.890625 0.4375q0.8125 0.421875 1.15625 1.1875q0.359375 0.765625 0.359375 2.203125l0 6.25l-1.671875 0l0 -6.25q0 -1.25 -0.546875 -1.8125q-0.546875 -0.578125 -1.53125 -0.578125q-0.75 0 -1.40625 0.390625q-0.640625 0.375 -0.921875 1.046875q-0.28125 0.65625 -0.28125 1.8125l0 5.390625l-1.671875 0z" fill-rule="nonzero"></path><path fill="#000000" d="m183.01056 162.48167l0 -2.0625l-3.71875 0l0 -0.96875l3.921875 -5.5625l0.859375 0l0 5.5625l1.15625 0l0 0.96875l-1.15625 0l0 2.0625l-1.0625 0zm0 -3.03125l0 -3.859375l-2.6875 3.859375l2.6875 0z" fill-rule="nonzero"></path><path fill="#000000" fill-opacity="0.0" d="m395.7362 145.54068l118.39374 0l0 103.65355l-118.39374 0z" fill-rule="nonzero"></path><path fill="#000000" d="m405.31433 169.52318l1.65625 -0.265625q0.140625 1.0 0.765625 1.53125q0.640625 0.515625 1.78125 0.515625q1.15625 0 1.703125 -0.46875q0.5625 -0.46875 0.5625 -1.09375q0 -0.5625 -0.484375 -0.890625q-0.34375 -0.21875 -1.703125 -0.5625q-1.84375 -0.46875 -2.5625 -0.796875q-0.703125 -0.34375 -1.078125 -0.9375q-0.359375 -0.609375 -0.359375 -1.328125q0 -0.65625 0.296875 -1.21875q0.3125 -0.5625 0.828125 -0.9375q0.390625 -0.28125 1.0625 -0.484375q0.671875 -0.203125 1.4375 -0.203125q1.171875 0 2.046875 0.34375q0.875 0.328125 1.28125 0.90625q0.421875 0.5625 0.578125 1.515625l-1.625 0.21875q-0.109375 -0.75 -0.65625 -1.171875q-0.53125 -0.4375 -1.5 -0.4375q-1.15625 0 -1.640625 0.390625q-0.484375 0.375 -0.484375 0.875q0 0.328125 0.203125 0.59375q0.203125 0.265625 0.640625 0.4375q0.25 0.09375 1.46875 0.4375q1.765625 0.46875 2.46875 0.765625q0.703125 0.296875 1.09375 0.875q0.40625 0.578125 0.40625 1.4375q0 0.828125 -0.484375 1.578125q-0.484375 0.734375 -1.40625 1.140625q-0.921875 0.390625 -2.078125 0.390625q-1.921875 0 -2.9375 -0.796875q-1.0 -0.796875 -1.28125 -2.359375z" fill-rule="nonzero"></path><path fill="#000000" d="m418.53308 179.46068l-1.046875 0l0 -6.71875q-0.390625 0.359375 -1.015625 0.734375q-0.609375 0.359375 -1.09375 0.53125l0 -1.015625q0.875 -0.421875 1.53125 -1.0q0.671875 -0.59375 0.953125 -1.15625l0.671875 0l0 8.625z" fill-rule="nonzero"></path><path fill="#000000" fill-opacity="0.0" d="m406.70734 157.89764l8.0 0" fill-rule="nonzero"></path><path stroke="#000000" stroke-width="1.0" stroke-linejoin="round" stroke-linecap="butt" d="m406.70734 157.89764l8.0 0" fill-rule="nonzero"></path><path fill="#000000" fill-opacity="0.0" d="m470.0433 154.07611l118.39371 0l0 103.653534l-118.39371 0z" fill-rule="nonzero"></path><path fill="#000000" d="m479.62143 178.05861l1.65625 -0.265625q0.140625 1.0 0.765625 1.53125q0.640625 0.515625 1.78125 0.515625q1.15625 0 1.703125 -0.46875q0.5625 -0.46875 0.5625 -1.09375q0 -0.5625 -0.484375 -0.890625q-0.34375 -0.21875 -1.703125 -0.5625q-1.84375 -0.46875 -2.5625 -0.796875q-0.703125 -0.34375 -1.078125 -0.9375q-0.359375 -0.609375 -0.359375 -1.328125q0 -0.65625 0.296875 -1.21875q0.3125 -0.5625 0.828125 -0.9375q0.390625 -0.28125 1.0625 -0.484375q0.671875 -0.203125 1.4375 -0.203125q1.171875 0 2.046875 0.34375q0.875 0.328125 1.28125 0.90625q0.421875 0.5625 0.578125 1.515625l-1.625 0.21875q-0.109375 -0.75 -0.65625 -1.171875q-0.53125 -0.4375 -1.5 -0.4375q-1.15625 0 -1.640625 0.390625q-0.484375 0.375 -0.484375 0.875q0 0.328125 0.203125 0.59375q0.203125 0.265625 0.640625 0.4375q0.25 0.09375 1.46875 0.4375q1.765625 0.46875 2.46875 0.765625q0.703125 0.296875 1.09375 0.875q0.40625 0.578125 0.40625 1.4375q0 0.828125 -0.484375 1.578125q-0.484375 0.734375 -1.40625 1.140625q-0.921875 0.390625 -2.078125 0.390625q-1.921875 0 -2.9375 -0.796875q-1.0 -0.796875 -1.28125 -2.359375z" fill-rule="nonzero"></path><path fill="#000000" d="m494.4183 186.98048l0 1.015625l-5.6875 0q0 -0.375 0.125 -0.734375q0.21875 -0.578125 0.6875 -1.140625q0.484375 -0.5625 1.390625 -1.296875q1.40625 -1.15625 1.890625 -1.828125q0.5 -0.671875 0.5 -1.265625q0 -0.625 -0.453125 -1.046875q-0.453125 -0.4375 -1.171875 -0.4375q-0.765625 0 -1.21875 0.453125q-0.453125 0.453125 -0.46875 1.265625l-1.078125 -0.109375q0.109375 -1.21875 0.828125 -1.84375q0.734375 -0.640625 1.96875 -0.640625q1.234375 0 1.953125 0.6875q0.71875 0.6875 0.71875 1.703125q0 0.515625 -0.21875 1.015625q-0.203125 0.484375 -0.703125 1.046875q-0.484375 0.546875 -1.609375 1.5q-0.953125 0.796875 -1.234375 1.09375q-0.265625 0.28125 -0.4375 0.5625l4.21875 0z" fill-rule="nonzero"></path><path fill="#000000" fill-opacity="0.0" d="m481.01443 166.43307l8.0 0" fill-rule="nonzero"></path><path stroke="#000000" stroke-width="1.0" stroke-linejoin="round" stroke-linecap="butt" d="m481.01443 166.43307l8.0 0" fill-rule="nonzero"></path><path fill="#000000" fill-opacity="0.0" d="m510.8517 107.26247l118.39371 0l0 103.65355l-118.39371 0z" fill-rule="nonzero"></path><path fill="#000000" d="m520.4298 131.24496l1.65625 -0.265625q0.140625 1.0 0.765625 1.53125q0.640625 0.515625 1.78125 0.515625q1.15625 0 1.703125 -0.46875q0.5625 -0.46875 0.5625 -1.09375q0 -0.5625 -0.484375 -0.890625q-0.34375 -0.21875 -1.703125 -0.5625q-1.84375 -0.46875 -2.5625 -0.796875q-0.703125 -0.34375 -1.078125 -0.9375q-0.359375 -0.609375 -0.359375 -1.328125q0 -0.65625 0.296875 -1.21875q0.3125 -0.5625 0.828125 -0.9375q0.390625 -0.28125 1.0625 -0.484375q0.671875 -0.203125 1.4375 -0.203125q1.171875 0 2.046875 0.34375q0.875 0.328125 1.28125 0.90625q0.421875 0.5625 0.578125 1.515625l-1.625 0.21875q-0.109375 -0.75 -0.65625 -1.171875q-0.53125 -0.4375 -1.5 -0.4375q-1.15625 0 -1.640625 0.390625q-0.484375 0.375 -0.484375 0.875q0 0.328125 0.203125 0.59375q0.203125 0.265625 0.640625 0.4375q0.25 0.09375 1.46875 0.4375q1.765625 0.46875 2.46875 0.765625q0.703125 0.296875 1.09375 0.875q0.40625 0.578125 0.40625 1.4375q0 0.828125 -0.484375 1.578125q-0.484375 0.734375 -1.40625 1.140625q-0.921875 0.390625 -2.078125 0.390625q-1.921875 0 -2.9375 -0.796875q-1.0 -0.796875 -1.28125 -2.359375z" fill-rule="nonzero"></path><path fill="#000000" d="m529.6798 138.91684l1.0625 -0.140625q0.171875 0.890625 0.609375 1.296875q0.4375 0.390625 1.0625 0.390625q0.75 0 1.265625 -0.515625q0.515625 -0.515625 0.515625 -1.28125q0 -0.71875 -0.484375 -1.1875q-0.46875 -0.484375 -1.203125 -0.484375q-0.296875 0 -0.75 0.125l0.125 -0.9375q0.109375 0.015625 0.171875 0.015625q0.671875 0 1.203125 -0.34375q0.546875 -0.359375 0.546875 -1.09375q0 -0.578125 -0.390625 -0.953125q-0.390625 -0.390625 -1.015625 -0.390625q-0.609375 0 -1.03125 0.390625q-0.40625 0.390625 -0.515625 1.15625l-1.0625 -0.1875q0.1875 -1.046875 0.875 -1.625q0.6875 -0.59375 1.703125 -0.59375q0.703125 0 1.296875 0.3125q0.59375 0.296875 0.90625 0.8125q0.3125 0.515625 0.3125 1.109375q0 0.546875 -0.296875 1.015625q-0.296875 0.453125 -0.875 0.71875q0.75 0.171875 1.171875 0.734375q0.421875 0.546875 0.421875 1.390625q0 1.125 -0.828125 1.90625q-0.8125 0.78125 -2.0625 0.78125q-1.125 0 -1.875 -0.671875q-0.75 -0.6875 -0.859375 -1.75z" fill-rule="nonzero"></path><path fill="#000000" fill-opacity="0.0" d="m521.8228 119.61942l8.0 0" fill-rule="nonzero"></path><path stroke="#000000" stroke-width="1.0" stroke-linejoin="round" stroke-linecap="butt" d="m521.8228 119.61942l8.0 0" fill-rule="nonzero"></path><path fill="#000000" fill-opacity="0.0" d="m544.0197 48.97113l118.39368 0l0 103.653534l-118.39368 0z" fill-rule="nonzero"></path><path fill="#000000" d="m553.59784 72.95363l1.65625 -0.265625q0.140625 1.0 0.765625 1.53125q0.640625 0.515625 1.78125 0.515625q1.15625 0 1.703125 -0.46875q0.5625 -0.46875 0.5625 -1.09375q0 -0.5625 -0.484375 -0.890625q-0.34375 -0.21875 -1.703125 -0.5625q-1.84375 -0.46875 -2.5625 -0.796875q-0.703125 -0.34375 -1.078125 -0.9375q-0.359375 -0.609375 -0.359375 -1.328125q0 -0.65625 0.296875 -1.21875q0.3125 -0.5625 0.828125 -0.9375q0.390625 -0.28125 1.0625 -0.484375q0.671875 -0.203125 1.4375 -0.203125q1.171875 0 2.046875 0.34375q0.875 0.328125 1.28125 0.90625q0.421875 0.5625 0.578125 1.515625l-1.625 0.21875q-0.109375 -0.75 -0.65625 -1.171875q-0.53125 -0.4375 -1.5 -0.4375q-1.15625 0 -1.640625 0.390625q-0.484375 0.375 -0.484375 0.875q0 0.328125 0.203125 0.59375q0.203125 0.265625 0.640625 0.4375q0.25 0.09375 1.46875 0.4375q1.765625 0.46875 2.46875 0.765625q0.703125 0.296875 1.09375 0.875q0.40625 0.578125 0.40625 1.4375q0 0.828125 -0.484375 1.578125q-0.484375 0.734375 -1.40625 1.140625q-0.921875 0.390625 -2.078125 0.390625q-1.921875 0 -2.9375 -0.796875q-1.0 -0.796875 -1.28125 -2.359375z" fill-rule="nonzero"></path><path fill="#000000" d="m566.22284 82.89113l0 -2.0625l-3.71875 0l0 -0.96875l3.921875 -5.5625l0.859375 0l0 5.5625l1.15625 0l0 0.96875l-1.15625 0l0 2.0625l-1.0625 0zm0 -3.03125l0 -3.859375l-2.6875 3.859375l2.6875 0z" fill-rule="nonzero"></path><path fill="#000000" fill-opacity="0.0" d="m554.9908 61.328083l8.0 0" fill-rule="nonzero"></path><path stroke="#000000" stroke-width="1.0" stroke-linejoin="round" stroke-linecap="butt" d="m554.9908 61.328083l8.0 0" fill-rule="nonzero"></path><path fill="#000000" fill-opacity="0.0" d="m868.4829 91.77559l133.2284 0l0 98.3307l-133.2284 0z" fill-rule="nonzero"></path><path fill="#000000" d="m878.3423 114.32059l1.6875 -0.140625q0.125 1.015625 0.5625 1.671875q0.4375 0.65625 1.359375 1.0625q0.9375 0.40625 2.09375 0.40625q1.03125 0 1.8125 -0.3125q0.796875 -0.3125 1.1875 -0.84375q0.390625 -0.53125 0.390625 -1.15625q0 -0.640625 -0.375 -1.109375q-0.375 -0.484375 -1.234375 -0.8125q-0.546875 -0.21875 -2.421875 -0.65625q-1.875 -0.453125 -2.625 -0.859375q-0.96875 -0.515625 -1.453125 -1.265625q-0.46875 -0.75 -0.46875 -1.6875q0 -1.03125 0.578125 -1.921875q0.59375 -0.90625 1.703125 -1.359375q1.125 -0.46875 2.5 -0.46875q1.515625 0 2.671875 0.484375q1.15625 0.484375 1.765625 1.4375q0.625 0.9375 0.671875 2.140625l-1.71875 0.125q-0.140625 -1.28125 -0.953125 -1.9375q-0.796875 -0.671875 -2.359375 -0.671875q-1.625 0 -2.375 0.609375q-0.75 0.59375 -0.75 1.4375q0 0.734375 0.53125 1.203125q0.515625 0.46875 2.703125 0.96875q2.203125 0.5 3.015625 0.875q1.1875 0.546875 1.75 1.390625q0.578125 0.828125 0.578125 1.921875q0 1.09375 -0.625 2.0625q-0.625 0.953125 -1.796875 1.484375q-1.15625 0.53125 -2.609375 0.53125q-1.84375 0 -3.09375 -0.53125q-1.25 -0.546875 -1.96875 -1.625q-0.703125 -1.078125 -0.734375 -2.453125zm16.021729 8.375q-1.375 -1.75 -2.328125 -4.078125q-0.953125 -2.34375 -0.953125 -4.84375q0 -2.21875 0.703125 -4.234375q0.84375 -2.34375 2.578125 -4.671875l1.203125 0q-1.125 1.921875 -1.484375 2.75q-0.5625 1.28125 -0.890625 2.671875q-0.40625 1.734375 -0.40625 3.484375q0 4.46875 2.78125 8.921875l-1.203125 0zm3.2751465 -4.0l0 -13.59375l9.84375 0l0 1.59375l-8.046875 0l0 4.171875l7.53125 0l0 1.59375l-7.53125 0l0 4.625l8.359375 0l0 1.609375l-10.15625 0zm13.2873535 4.0l-1.1875 0q2.765625 -4.453125 2.765625 -8.921875q0 -1.734375 -0.390625 -3.453125q-0.328125 -1.390625 -0.890625 -2.671875q-0.359375 -0.84375 -1.484375 -2.78125l1.1875 0q1.75 2.328125 2.578125 4.671875q0.71875 2.015625 0.71875 4.234375q0 2.5 -0.96875 4.84375q-0.953125 2.328125 -2.328125 4.078125z" fill-rule="nonzero"></path><path fill="#000000" fill-opacity="0.0" d="m879.45404 105.78871l5.3858643 -6.2992096" fill-rule="nonzero"></path><path stroke="#000000" stroke-width="2.0" stroke-linejoin="round" stroke-linecap="butt" d="m879.45404 105.78871l5.3858643 -6.2992096" fill-rule="nonzero"></path><path fill="#000000" fill-opacity="0.0" d="m884.858 99.4895l5.385803 6.2992096" fill-rule="nonzero"></path><path stroke="#000000" stroke-width="2.0" stroke-linejoin="round" stroke-linecap="butt" d="m884.858 99.4895l5.385803 6.2992096" fill-rule="nonzero"></path><path fill="#000000" fill-opacity="0.0" d="m183.0 362.17847l241.00787 0" fill-rule="nonzero"></path><path stroke="#000000" stroke-width="2.0" stroke-linejoin="round" stroke-linecap="butt" d="m183.0 362.17847l229.00787 0" fill-rule="evenodd"></path><path fill="#000000" stroke="#000000" stroke-width="2.0" stroke-linecap="butt" d="m412.00787 365.48193l9.076202 -3.3034668l-9.076202 -3.3034668z" fill-rule="evenodd"></path><path fill="#000000" fill-opacity="0.0" d="m225.73228 314.17847l246.26772 0l0 111.02362l-246.26772 0z" fill-rule="nonzero"></path><path fill="#000000" d="m235.31041 343.28098l1.65625 -0.265625q0.140625 1.0 0.765625 1.53125q0.640625 0.515625 1.78125 0.515625q1.15625 0 1.703125 -0.46875q0.5625 -0.46875 0.5625 -1.09375q0 -0.5625 -0.484375 -0.890625q-0.34375 -0.21875 -1.703125 -0.5625q-1.84375 -0.46875 -2.5625 -0.796875q-0.703125 -0.34375 -1.078125 -0.9375q-0.359375 -0.609375 -0.359375 -1.328125q0 -0.65625 0.296875 -1.21875q0.3125 -0.5625 0.828125 -0.9375q0.390625 -0.28125 1.0625 -0.484375q0.671875 -0.203125 1.4375 -0.203125q1.171875 0 2.046875 0.34375q0.875 0.328125 1.28125 0.90625q0.421875 0.5625 0.578125 1.515625l-1.625 0.21875q-0.109375 -0.75 -0.65625 -1.171875q-0.53125 -0.4375 -1.5 -0.4375q-1.15625 0 -1.640625 0.390625q-0.484375 0.375 -0.484375 0.875q0 0.328125 0.203125 0.59375q0.203125 0.265625 0.640625 0.4375q0.25 0.09375 1.46875 0.4375q1.765625 0.46875 2.46875 0.765625q0.703125 0.296875 1.09375 0.875q0.40625 0.578125 0.40625 1.4375q0 0.828125 -0.484375 1.578125q-0.484375 0.734375 -1.40625 1.140625q-0.921875 0.390625 -2.078125 0.390625q-1.921875 0 -2.9375 -0.796875q-1.0 -0.796875 -1.28125 -2.359375z" fill-rule="nonzero"></path><path fill="#000000" d="m244.85728 345.84348l0 -1.21875l1.0625 0l0 1.21875l-1.0625 0zm0 7.375l0 -6.21875l1.0625 0l0 6.21875l-1.0625 0z" fill-rule="nonzero"></path><path fill="#000000" d="m260.3103 338.21848l-8.968735 0l0 -1.5625l8.968735 0l0 1.5625zm0 4.125l-8.968735 0l0 -1.546875l8.968735 0l0 1.546875zm7.2657776 3.875l0 -13.59375l1.671875 0l0 13.59375l-1.671875 0zm3.551056 -4.921875q0 -2.734375 1.53125 -4.0625q1.265625 -1.09375 3.09375 -1.09375q2.03125 0 3.3125 1.34375q1.296875 1.328125 1.296875 3.671875q0 1.90625 -0.578125 3.0q-0.5625 1.078125 -1.65625 1.6875q-1.078125 0.59375 -2.375 0.59375q-2.0625 0 -3.34375 -1.328125q-1.28125 -1.328125 -1.28125 -3.8125zm1.71875 0q0 1.890625 0.828125 2.828125q0.828125 0.9375 2.078125 0.9375q1.25 0 2.0625 -0.9375q0.828125 -0.953125 0.828125 -2.890625q0 -1.828125 -0.828125 -2.765625q-0.828125 -0.9375 -2.0625 -0.9375q-1.25 0 -2.078125 0.9375q-0.828125 0.9375 -0.828125 2.828125zm8.985107 5.734375l1.609375 0.25q0.109375 0.75 0.578125 1.09375q0.609375 0.453125 1.6875 0.453125q1.171875 0 1.796875 -0.46875q0.625 -0.453125 0.859375 -1.28125q0.125 -0.515625 0.109375 -2.15625q-1.09375 1.296875 -2.71875 1.296875q-2.03125 0 -3.15625 -1.46875q-1.109375 -1.46875 -1.109375 -3.515625q0 -1.40625 0.515625 -2.59375q0.515625 -1.203125 1.484375 -1.84375q0.96875 -0.65625 2.265625 -0.65625q1.75 0 2.875 1.40625l0 -1.1875l1.546875 0l0 8.515625q0 2.3125 -0.46875 3.265625q-0.46875 0.96875 -1.484375 1.515625q-1.015625 0.5625 -2.5 0.5625q-1.765625 0 -2.859375 -0.796875q-1.078125 -0.796875 -1.03125 -2.390625zm1.375 -5.921875q0 1.953125 0.765625 2.84375q0.78125 0.890625 1.9375 0.890625q1.140625 0 1.921875 -0.890625q0.78125 -0.890625 0.78125 -2.78125q0 -1.8125 -0.8125 -2.71875q-0.796875 -0.921875 -1.921875 -0.921875q-1.109375 0 -1.890625 0.90625q-0.78125 0.890625 -0.78125 2.671875zm14.480896 5.109375l0 -13.59375l1.671875 0l0 4.875q1.171875 -1.359375 2.953125 -1.359375q1.09375 0 1.890625 0.4375q0.8125 0.421875 1.15625 1.1875q0.359375 0.765625 0.359375 2.203125l0 6.25l-1.671875 0l0 -6.25q0 -1.25 -0.546875 -1.8125q-0.546875 -0.578125 -1.53125 -0.578125q-0.75 0 -1.40625 0.390625q-0.640625 0.375 -0.921875 1.046875q-0.28125 0.65625 -0.28125 1.8125l0 5.390625l-1.671875 0z" fill-rule="nonzero"></path><path fill="#000000" d="m307.60947 345.84348l0 -1.21875l1.0625 0l0 1.21875l-1.0625 0zm0 7.375l0 -6.21875l1.0625 0l0 6.21875l-1.0625 0z" fill-rule="nonzero"></path><path fill="#000000" d="m314.01328 350.21848q-1.375 -1.75 -2.328125 -4.078125q-0.953125 -2.34375 -0.953125 -4.84375q0 -2.21875 0.703125 -4.234375q0.84375 -2.34375 2.578125 -4.671875l1.203125 0q-1.125 1.921875 -1.484375 2.75q-0.5625 1.28125 -0.890625 2.671875q-0.40625 1.734375 -0.40625 3.484375q0 4.46875 2.78125 8.921875l-1.203125 0zm3.275177 -4.0l0 -13.59375l9.84375 0l0 1.59375l-8.046875 0l0 4.171875l7.53125 0l0 1.59375l-7.53125 0l0 4.625l8.359375 0l0 1.609375l-10.15625 0zm13.287323 4.0l-1.1875 0q2.765625 -4.453125 2.765625 -8.921875q0 -1.734375 -0.390625 -3.453125q-0.328125 -1.390625 -0.890625 -2.671875q-0.359375 -0.84375 -1.484375 -2.78125l1.1875 0q1.75 2.328125 2.578125 4.671875q0.71875 2.015625 0.71875 4.234375q0 2.5 -0.96875 4.84375q-0.953125 2.328125 -2.328125 4.078125zm11.868927 -7.171875l1.71875 0.21875q-0.40625 1.5 -1.515625 2.34375q-1.09375 0.828125 -2.8125 0.828125q-2.15625 0 -3.421875 -1.328125q-1.265625 -1.328125 -1.265625 -3.734375q0 -2.484375 1.265625 -3.859375q1.28125 -1.375 3.328125 -1.375q1.984375 0 3.234375 1.34375q1.25 1.34375 1.25 3.796875q0 0.140625 -0.015625 0.4375l-7.34375 0q0.09375 1.625 0.921875 2.484375q0.828125 0.859375 2.0625 0.859375q0.90625 0 1.546875 -0.46875q0.65625 -0.484375 1.046875 -1.546875zm-5.484375 -2.703125l5.5 0q-0.109375 -1.234375 -0.625 -1.859375q-0.796875 -0.96875 -2.078125 -0.96875q-1.140625 0 -1.9375 0.78125q-0.78125 0.765625 -0.859375 2.046875z" fill-rule="nonzero"></path><path fill="#000000" d="m353.17978 334.39035q0 1.296875 -0.859375 2.265625q-0.84375 0.953125 -2.203125 0.953125q-0.828125 0 -1.4375 -0.328125q-0.59375 -0.328125 -0.765625 -1.03125l-0.03125 0l0 4.171875l-2.171875 0l0 -9.1875q0 -0.90625 0.140625 -1.6875q0.15625 -0.796875 0.515625 -1.546875q0.359375 -0.765625 1.078125 -1.203125q0.734375 -0.4375 1.765625 -0.4375q1.296875 0 2.234375 0.578125q0.9375 0.578125 0.9375 1.75q0 1.875 -2.578125 2.4375l0 0.03125q3.375 0.421875 3.375 3.234375zm-2.578125 0.765625l0 -1.28125q0 -2.390625 -1.09375 -2.390625q-0.109375 0 -0.359375 0.078125q-0.234375 0.0625 -0.34375 0.0625q-0.15625 0 -0.25 -0.15625q-0.09375 -0.15625 -0.09375 -0.296875q0 -0.140625 0.109375 -0.265625q0.125 -0.140625 0.265625 -0.140625q0.09375 0 0.28125 0.0625q0.203125 0.046875 0.296875 0.046875q0.71875 0 0.71875 -1.734375l0 -0.125q0 -2.21875 -1.015625 -2.21875q-1.234375 0 -1.234375 3.015625l0 6.296875l0.484375 0q0.03125 0.296875 0.3125 0.5625q0.28125 0.25 0.59375 0.25q1.328125 0 1.328125 -1.765625z" fill-rule="nonzero"></path><path fill="#000000" d="m354.2923 334.57785l0 -1.015625l0.875 0l0 1.015625l-0.875 0zm0 6.140625l0 -5.1875l0.875 0l0 5.1875l-0.875 0z" fill-rule="nonzero"></path><path fill="#000000" d="m357.05563 337.21848l0 -11.453125l8.28125 0l0 1.34375l-6.765625 0l0 3.515625l6.34375 0l0 1.34375l-6.34375 0l0 3.890625l7.03125 0l0 1.359375l-8.546875 0z" fill-rule="nonzero"></path><path fill="#000000" fill-opacity="0.0" d="m235.85826 333.20996l8.0 0" fill-rule="nonzero"></path><path stroke="#000000" stroke-width="1.0" stroke-linejoin="round" stroke-linecap="butt" d="m235.85826 333.20996l8.0 0" fill-rule="nonzero"></path><path fill="#000000" fill-opacity="0.0" d="m536.0 362.17847l264.0 0" fill-rule="nonzero"></path><path stroke="#000000" stroke-width="2.0" stroke-linejoin="round" stroke-linecap="butt" d="m536.0 362.17847l252.0 0" fill-rule="evenodd"></path><path fill="#000000" stroke="#000000" stroke-width="2.0" stroke-linecap="butt" d="m788.0 365.48193l9.076172 -3.3034668l-9.076172 -3.3034668z" fill-rule="evenodd"></path><path fill="#000000" fill-opacity="0.0" d="m528.0 322.17847l336.0 0l0 96.0l-336.0 0z" fill-rule="nonzero"></path><path fill="#000000" d="m538.40625 349.09848l0 -13.59375l2.71875 0l3.21875 9.625q0.4375 1.34375 0.640625 2.015625q0.234375 -0.75 0.734375 -2.1875l3.25 -9.453125l2.421875 0l0 13.59375l-1.734375 0l0 -11.390625l-3.953125 11.390625l-1.625 0l-3.9375 -11.578125l0 11.578125l-1.734375 0zm21.837646 0l0 -1.453125q-1.140625 1.671875 -3.125 1.671875q-0.859375 0 -1.625 -0.328125q-0.75 -0.34375 -1.125 -0.84375q-0.359375 -0.5 -0.515625 -1.234375q-0.09375 -0.5 -0.09375 -1.5625l0 -6.109375l1.671875 0l0 5.46875q0 1.3125 0.09375 1.765625q0.15625 0.65625 0.671875 1.03125q0.515625 0.375 1.265625 0.375q0.75 0 1.40625 -0.375q0.65625 -0.390625 0.921875 -1.046875q0.28125 -0.671875 0.28125 -1.9375l0 -5.28125l1.671875 0l0 9.859375l-1.5 0zm3.8913574 0l0 -13.59375l1.671875 0l0 13.59375l-1.671875 0zm7.8323364 -1.5l0.234375 1.484375q-0.703125 0.140625 -1.265625 0.140625q-0.90625 0 -1.40625 -0.28125q-0.5 -0.296875 -0.703125 -0.75q-0.203125 -0.46875 -0.203125 -1.984375l0 -5.65625l-1.234375 0l0 -1.3125l1.234375 0l0 -2.4375l1.65625 -1.0l0 3.4375l1.6875 0l0 1.3125l-1.6875 0l0 5.75q0 0.71875 0.078125 0.921875q0.09375 0.203125 0.296875 0.328125q0.203125 0.125 0.578125 0.125q0.265625 0 0.734375 -0.078125zm1.5426636 -10.1875l0 -1.90625l1.671875 0l0 1.90625l-1.671875 0zm0 11.6875l0 -9.859375l1.671875 0l0 9.859375l-1.671875 0zm4.1292114 3.78125l0 -13.640625l1.53125 0l0 1.28125q0.53125 -0.75 1.203125 -1.125q0.6875 -0.375 1.640625 -0.375q1.265625 0 2.234375 0.65625q0.96875 0.640625 1.453125 1.828125q0.5 1.1875 0.5 2.59375q0 1.515625 -0.546875 2.734375q-0.546875 1.203125 -1.578125 1.84375q-1.03125 0.640625 -2.171875 0.640625q-0.84375 0 -1.515625 -0.34375q-0.65625 -0.359375 -1.078125 -0.890625l0 4.796875l-1.671875 0zm1.515625 -8.65625q0 1.90625 0.765625 2.8125q0.78125 0.90625 1.875 0.90625q1.109375 0 1.890625 -0.9375q0.796875 -0.9375 0.796875 -2.921875q0 -1.875 -0.78125 -2.8125q-0.765625 -0.9375 -1.84375 -0.9375q-1.0625 0 -1.890625 1.0q-0.8125 1.0 -0.8125 2.890625zm8.828857 4.875l0 -13.59375l1.671875 0l0 13.59375l-1.671875 0zm10.926086 -3.171875l1.71875 0.21875q-0.40625 1.5 -1.515625 2.34375q-1.09375 0.828125 -2.8125 0.828125q-2.15625 0 -3.421875 -1.328125q-1.265625 -1.328125 -1.265625 -3.734375q0 -2.484375 1.265625 -3.859375q1.28125 -1.375 3.328125 -1.375q1.984375 0 3.234375 1.34375q1.25 1.34375 1.25 3.796875q0 0.140625 -0.015625 0.4375l-7.34375 0q0.09375 1.625 0.921875 2.484375q0.828125 0.859375 2.0625 0.859375q0.90625 0 1.546875 -0.46875q0.65625 -0.484375 1.046875 -1.546875zm-5.484375 -2.703125l5.5 0q-0.109375 -1.234375 -0.625 -1.859375q-0.796875 -0.96875 -2.078125 -0.96875q-1.140625 0 -1.9375 0.78125q-0.78125 0.765625 -0.859375 2.046875zm8.469421 1.796875l0 -1.6875l5.125 0l0 1.6875l-5.125 0zm6.8533325 4.078125l0 -13.59375l1.671875 0l0 4.875q1.171875 -1.359375 2.953125 -1.359375q1.09375 0 1.890625 0.4375q0.8125 0.421875 1.15625 1.1875q0.359375 0.765625 0.359375 2.203125l0 6.25l-1.671875 0l0 -6.25q0 -1.25 -0.546875 -1.8125q-0.546875 -0.578125 -1.53125 -0.578125q-0.75 0 -1.40625 0.390625q-0.640625 0.375 -0.921875 1.046875q-0.28125 0.65625 -0.28125 1.8125l0 5.390625l-1.671875 0zm10.391357 -11.6875l0 -1.90625l1.671875 0l0 1.90625l-1.671875 0zm0 11.6875l0 -9.859375l1.671875 0l0 9.859375l-1.671875 0zm3.4572754 -2.9375l1.65625 -0.265625q0.140625 1.0 0.765625 1.53125q0.640625 0.515625 1.78125 0.515625q1.15625 0 1.703125 -0.46875q0.5625 -0.46875 0.5625 -1.09375q0 -0.5625 -0.484375 -0.890625q-0.34375 -0.21875 -1.703125 -0.5625q-1.84375 -0.46875 -2.5625 -0.796875q-0.703125 -0.34375 -1.078125 -0.9375q-0.359375 -0.609375 -0.359375 -1.328125q0 -0.65625 0.296875 -1.21875q0.3125 -0.5625 0.828125 -0.9375q0.390625 -0.28125 1.0625 -0.484375q0.671875 -0.203125 1.4375 -0.203125q1.171875 0 2.046875 0.34375q0.875 0.328125 1.28125 0.90625q0.421875 0.5625 0.578125 1.515625l-1.625 0.21875q-0.109375 -0.75 -0.65625 -1.171875q-0.53125 -0.4375 -1.5 -0.4375q-1.15625 0 -1.640625 0.390625q-0.484375 0.375 -0.484375 0.875q0 0.328125 0.203125 0.59375q0.203125 0.265625 0.640625 0.4375q0.25 0.09375 1.46875 0.4375q1.765625 0.46875 2.46875 0.765625q0.703125 0.296875 1.09375 0.875q0.40625 0.578125 0.40625 1.4375q0 0.828125 -0.484375 1.578125q-0.484375 0.734375 -1.40625 1.140625q-0.921875 0.390625 -2.078125 0.390625q-1.921875 0 -2.9375 -0.796875q-1.0 -0.796875 -1.28125 -2.359375zm13.65625 1.4375l0.234375 1.484375q-0.703125 0.140625 -1.265625 0.140625q-0.90625 0 -1.40625 -0.28125q-0.5 -0.296875 -0.703125 -0.75q-0.203125 -0.46875 -0.203125 -1.984375l0 -5.65625l-1.234375 0l0 -1.3125l1.234375 0l0 -2.4375l1.65625 -1.0l0 3.4375l1.6875 0l0 1.3125l-1.6875 0l0 5.75q0 0.71875 0.078125 0.921875q0.09375 0.203125 0.296875 0.328125q0.203125 0.125 0.578125 0.125q0.265625 0 0.734375 -0.078125zm0.9020996 -3.421875q0 -2.734375 1.53125 -4.0625q1.265625 -1.09375 3.09375 -1.09375q2.03125 0 3.3125 1.34375q1.296875 1.328125 1.296875 3.671875q0 1.90625 -0.578125 3.0q-0.5625 1.078125 -1.65625 1.6875q-1.078125 0.59375 -2.375 0.59375q-2.0625 0 -3.34375 -1.328125q-1.28125 -1.328125 -1.28125 -3.8125zm1.71875 0q0 1.890625 0.828125 2.828125q0.828125 0.9375 2.078125 0.9375q1.25 0 2.0625 -0.9375q0.828125 -0.953125 0.828125 -2.890625q0 -1.828125 -0.828125 -2.765625q-0.828125 -0.9375 -2.0625 -0.9375q-1.25 0 -2.078125 0.9375q-0.828125 0.9375 -0.828125 2.828125zm8.985046 5.734375l1.609375 0.25q0.109375 0.75 0.578125 1.09375q0.609375 0.453125 1.6875 0.453125q1.171875 0 1.796875 -0.46875q0.625 -0.453125 0.859375 -1.28125q0.125 -0.515625 0.109375 -2.15625q-1.09375 1.296875 -2.71875 1.296875q-2.03125 0 -3.15625 -1.46875q-1.109375 -1.46875 -1.109375 -3.515625q0 -1.40625 0.515625 -2.59375q0.515625 -1.203125 1.484375 -1.84375q0.96875 -0.65625 2.265625 -0.65625q1.75 0 2.875 1.40625l0 -1.1875l1.546875 0l0 8.515625q0 2.3125 -0.46875 3.265625q-0.46875 0.96875 -1.484375 1.515625q-1.015625 0.5625 -2.5 0.5625q-1.765625 0 -2.859375 -0.796875q-1.078125 -0.796875 -1.03125 -2.390625zm1.375 -5.921875q0 1.953125 0.765625 2.84375q0.78125 0.890625 1.9375 0.890625q1.140625 0 1.921875 -0.890625q0.78125 -0.890625 0.78125 -2.78125q0 -1.8125 -0.8125 -2.71875q-0.796875 -0.921875 -1.921875 -0.921875q-1.109375 0 -1.890625 0.90625q-0.78125 0.890625 -0.78125 2.671875zm9.281982 5.109375l0 -9.859375l1.5 0l0 1.5q0.578125 -1.046875 1.0625 -1.375q0.484375 -0.34375 1.078125 -0.34375q0.84375 0 1.71875 0.546875l-0.578125 1.546875q-0.609375 -0.359375 -1.234375 -0.359375q-0.546875 0 -0.984375 0.328125q-0.421875 0.328125 -0.609375 0.90625q-0.28125 0.890625 -0.28125 1.953125l0 5.15625l-1.671875 0zm12.6658325 -1.21875q-0.9375 0.796875 -1.796875 1.125q-0.859375 0.3125 -1.84375 0.3125q-1.609375 0 -2.484375 -0.78125q-0.875 -0.796875 -0.875 -2.03125q0 -0.734375 0.328125 -1.328125q0.328125 -0.59375 0.859375 -0.953125q0.53125 -0.359375 1.203125 -0.546875q0.5 -0.140625 1.484375 -0.25q2.03125 -0.25 2.984375 -0.578125q0 -0.34375 0 -0.4375q0 -1.015625 -0.46875 -1.4375q-0.640625 -0.5625 -1.90625 -0.5625q-1.171875 0 -1.734375 0.40625q-0.5625 0.40625 -0.828125 1.46875l-1.640625 -0.234375q0.234375 -1.046875 0.734375 -1.6875q0.515625 -0.640625 1.46875 -0.984375q0.96875 -0.359375 2.25 -0.359375q1.265625 0 2.046875 0.296875q0.78125 0.296875 1.15625 0.75q0.375 0.453125 0.515625 1.140625q0.09375 0.421875 0.09375 1.53125l0 2.234375q0 2.328125 0.09375 2.953125q0.109375 0.609375 0.4375 1.171875l-1.75 0q-0.265625 -0.515625 -0.328125 -1.21875zm-0.140625 -3.71875q-0.90625 0.359375 -2.734375 0.625q-1.03125 0.140625 -1.453125 0.328125q-0.421875 0.1875 -0.65625 0.546875q-0.234375 0.359375 -0.234375 0.796875q0 0.671875 0.5 1.125q0.515625 0.4375 1.484375 0.4375q0.96875 0 1.71875 -0.421875q0.75 -0.4375 1.109375 -1.15625q0.265625 -0.578125 0.265625 -1.671875l0 -0.609375zm4.0787964 4.9375l0 -9.859375l1.5 0l0 1.390625q0.453125 -0.71875 1.21875 -1.15625q0.78125 -0.453125 1.765625 -0.453125q1.09375 0 1.796875 0.453125q0.703125 0.453125 0.984375 1.28125q1.171875 -1.734375 3.046875 -1.734375q1.46875 0 2.25 0.8125q0.796875 0.8125 0.796875 2.5l0 6.765625l-1.671875 0l0 -6.203125q0 -1.0 -0.15625 -1.4375q-0.15625 -0.453125 -0.59375 -0.71875q-0.421875 -0.265625 -1.0 -0.265625q-1.03125 0 -1.71875 0.6875q-0.6875 0.6875 -0.6875 2.21875l0 5.71875l-1.671875 0l0 -6.40625q0 -1.109375 -0.40625 -1.65625q-0.40625 -0.5625 -1.34375 -0.5625q-0.703125 0 -1.3125 0.375q-0.59375 0.359375 -0.859375 1.078125q-0.265625 0.71875 -0.265625 2.0625l0 5.109375l-1.671875 0zm20.708496 0l0 -9.859375l1.5 0l0 1.5q0.578125 -1.046875 1.0625 -1.375q0.484375 -0.34375 1.078125 -0.34375q0.84375 0 1.71875 0.546875l-0.578125 1.546875q-0.609375 -0.359375 -1.234375 -0.359375q-0.546875 0 -0.984375 0.328125q-0.421875 0.328125 -0.609375 0.90625q-0.28125 0.890625 -0.28125 1.953125l0 5.15625l-1.671875 0zm12.9783325 -3.171875l1.71875 0.21875q-0.40625 1.5 -1.515625 2.34375q-1.09375 0.828125 -2.8125 0.828125q-2.15625 0 -3.421875 -1.328125q-1.265625 -1.328125 -1.265625 -3.734375q0 -2.484375 1.265625 -3.859375q1.28125 -1.375 3.328125 -1.375q1.984375 0 3.234375 1.34375q1.25 1.34375 1.25 3.796875q0 0.140625 -0.015625 0.4375l-7.34375 0q0.09375 1.625 0.921875 2.484375q0.828125 0.859375 2.0625 0.859375q0.90625 0 1.546875 -0.46875q0.65625 -0.484375 1.046875 -1.546875zm-5.484375 -2.703125l5.5 0q-0.109375 -1.234375 -0.625 -1.859375q-0.796875 -0.96875 -2.078125 -0.96875q-1.140625 0 -1.9375 0.78125q-0.78125 0.765625 -0.859375 2.046875zm10.938171 5.875l-3.015625 -9.859375l1.71875 0l1.5625 5.6875l0.59375 2.125q0.03125 -0.15625 0.5 -2.03125l1.578125 -5.78125l1.71875 0l1.46875 5.71875l0.484375 1.890625l0.578125 -1.90625l1.6875 -5.703125l1.625 0l-3.078125 9.859375l-1.734375 0l-1.578125 -5.90625l-0.375 -1.671875l-2.0 7.578125l-1.734375 0zm18.394836 -3.171875l1.71875 0.21875q-0.40625 1.5 -1.515625 2.34375q-1.09375 0.828125 -2.8125 0.828125q-2.15625 0 -3.421875 -1.328125q-1.265625 -1.328125 -1.265625 -3.734375q0 -2.484375 1.265625 -3.859375q1.28125 -1.375 3.328125 -1.375q1.984375 0 3.234375 1.34375q1.25 1.34375 1.25 3.796875q0 0.140625 -0.015625 0.4375l-7.34375 0q0.09375 1.625 0.921875 2.484375q0.828125 0.859375 2.0625 0.859375q0.90625 0 1.546875 -0.46875q0.65625 -0.484375 1.046875 -1.546875zm-5.484375 -2.703125l5.5 0q-0.109375 -1.234375 -0.625 -1.859375q-0.796875 -0.96875 -2.078125 -0.96875q-1.140625 0 -1.9375 0.78125q-0.78125 0.765625 -0.859375 2.046875zm9.125732 -5.8125l0 -1.90625l1.671875 0l0 1.90625l-1.671875 0zm0 11.6875l0 -9.859375l1.671875 0l0 9.859375l-1.671875 0zm3.8322754 0.8125l1.609375 0.25q0.109375 0.75 0.578125 1.09375q0.609375 0.453125 1.6875 0.453125q1.171875 0 1.796875 -0.46875q0.625 -0.453125 0.859375 -1.28125q0.125 -0.515625 0.109375 -2.15625q-1.09375 1.296875 -2.71875 1.296875q-2.03125 0 -3.15625 -1.46875q-1.109375 -1.46875 -1.109375 -3.515625q0 -1.40625 0.515625 -2.59375q0.515625 -1.203125 1.484375 -1.84375q0.96875 -0.65625 2.265625 -0.65625q1.75 0 2.875 1.40625l0 -1.1875l1.546875 0l0 8.515625q0 2.3125 -0.46875 3.265625q-0.46875 0.96875 -1.484375 1.515625q-1.015625 0.5625 -2.5 0.5625q-1.765625 0 -2.859375 -0.796875q-1.078125 -0.796875 -1.03125 -2.390625zm1.375 -5.921875q0 1.953125 0.765625 2.84375q0.78125 0.890625 1.9375 0.890625q1.140625 0 1.921875 -0.890625q0.78125 -0.890625 0.78125 -2.78125q0 -1.8125 -0.8125 -2.71875q-0.796875 -0.921875 -1.921875 -0.921875q-1.109375 0 -1.890625 0.90625q-0.78125 0.890625 -0.78125 2.671875zm9.297607 5.109375l0 -13.59375l1.671875 0l0 4.875q1.171875 -1.359375 2.953125 -1.359375q1.09375 0 1.890625 0.4375q0.8125 0.421875 1.15625 1.1875q0.359375 0.765625 0.359375 2.203125l0 6.25l-1.671875 0l0 -6.25q0 -1.25 -0.546875 -1.8125q-0.546875 -0.578125 -1.53125 -0.578125q-0.75 0 -1.40625 0.390625q-0.640625 0.375 -0.921875 1.046875q-0.28125 0.65625 -0.28125 1.8125l0 5.390625l-1.671875 0zm14.031982 -1.5l0.234375 1.484375q-0.703125 0.140625 -1.265625 0.140625q-0.90625 0 -1.40625 -0.28125q-0.5 -0.296875 -0.703125 -0.75q-0.203125 -0.46875 -0.203125 -1.984375l0 -5.65625l-1.234375 0l0 -1.3125l1.234375 0l0 -2.4375l1.65625 -1.0l0 3.4375l1.6875 0l0 1.3125l-1.6875 0l0 5.75q0 0.71875 0.078125 0.921875q0.09375 0.203125 0.296875 0.328125q0.203125 0.125 0.578125 0.125q0.265625 0 0.734375 -0.078125zm1.5426636 -10.1875l0 -1.90625l1.671875 0l0 1.90625l-1.671875 0zm0 11.6875l0 -9.859375l1.671875 0l0 9.859375l-1.671875 0zm4.1292114 0l0 -9.859375l1.5 0l0 1.40625q1.09375 -1.625 3.140625 -1.625q0.890625 0 1.640625 0.328125q0.75 0.3125 1.109375 0.84375q0.375 0.515625 0.53125 1.21875q0.09375 0.46875 0.09375 1.625l0 6.0625l-1.671875 0l0 -6.0q0 -1.015625 -0.203125 -1.515625q-0.1875 -0.515625 -0.6875 -0.8125q-0.5 -0.296875 -1.171875 -0.296875q-1.0625 0 -1.84375 0.671875q-0.765625 0.671875 -0.765625 2.578125l0 5.375l-1.671875 0zm10.078857 0.8125l1.609375 0.25q0.109375 0.75 0.578125 1.09375q0.609375 0.453125 1.6875 0.453125q1.171875 0 1.796875 -0.46875q0.625 -0.453125 0.859375 -1.28125q0.125 -0.515625 0.109375 -2.15625q-1.09375 1.296875 -2.71875 1.296875q-2.03125 0 -3.15625 -1.46875q-1.109375 -1.46875 -1.109375 -3.515625q0 -1.40625 0.515625 -2.59375q0.515625 -1.203125 1.484375 -1.84375q0.96875 -0.65625 2.265625 -0.65625q1.75 0 2.875 1.40625l0 -1.1875l1.546875 0l0 8.515625q0 2.3125 -0.46875 3.265625q-0.46875 0.96875 -1.484375 1.515625q-1.015625 0.5625 -2.5 0.5625q-1.765625 0 -2.859375 -0.796875q-1.078125 -0.796875 -1.03125 -2.390625zm1.375 -5.921875q0 1.953125 0.765625 2.84375q0.78125 0.890625 1.9375 0.890625q1.140625 0 1.921875 -0.890625q0.78125 -0.890625 0.78125 -2.78125q0 -1.8125 -0.8125 -2.71875q-0.796875 -0.921875 -1.921875 -0.921875q-1.109375 0 -1.890625 0.90625q-0.78125 0.890625 -0.78125 2.671875z" fill-rule="nonzero"></path><path fill="#000000" fill-opacity="0.0" d="m208.0 24.0l64.0 0l0 40.0l-64.0 0z" fill-rule="nonzero"></path><path fill="#000000" d="m242.17072 54.92q-1.375 -1.75 -2.328125 -4.078125q-0.953125 -2.34375 -0.953125 -4.84375q0 -2.21875 0.703125 -4.234375q0.84375 -2.34375 2.578125 -4.671875l1.203125 0q-1.125 1.921875 -1.484375 2.75q-0.5625 1.28125 -0.890625 2.671875q-0.40625 1.734375 -0.40625 3.484375q0 4.46875 2.78125 8.921875l-1.203125 0zm9.462677 -5.21875q-0.9375 0.796875 -1.796875 1.125q-0.859375 0.3125 -1.84375 0.3125q-1.609375 0 -2.484375 -0.78125q-0.875 -0.796875 -0.875 -2.03125q0 -0.734375 0.328125 -1.328125q0.328125 -0.59375 0.859375 -0.953125q0.53125 -0.359375 1.203125 -0.546875q0.5 -0.140625 1.484375 -0.25q2.03125 -0.25 2.984375 -0.578125q0 -0.34375 0 -0.4375q0 -1.015625 -0.46875 -1.4375q-0.640625 -0.5625 -1.90625 -0.5625q-1.171875 0 -1.734375 0.40625q-0.5625 0.40625 -0.828125 1.46875l-1.640625 -0.234375q0.234375 -1.046875 0.734375 -1.6875q0.515625 -0.640625 1.46875 -0.984375q0.96875 -0.359375 2.25 -0.359375q1.265625 0 2.046875 0.296875q0.78125 0.296875 1.15625 0.75q0.375 0.453125 0.515625 1.140625q0.09375 0.421875 0.09375 1.53125l0 2.234375q0 2.328125 0.09375 2.953125q0.109375 0.609375 0.4375 1.171875l-1.75 0q-0.265625 -0.515625 -0.328125 -1.21875zm-0.140625 -3.71875q-0.90625 0.359375 -2.734375 0.625q-1.03125 0.140625 -1.453125 0.328125q-0.421875 0.1875 -0.65625 0.546875q-0.234375 0.359375 -0.234375 0.796875q0 0.671875 0.5 1.125q0.515625 0.4375 1.484375 0.4375q0.96875 0 1.71875 -0.421875q0.75 -0.4375 1.109375 -1.15625q0.265625 -0.578125 0.265625 -1.671875l0 -0.609375zm5.172577 8.9375l-1.1874847 0q2.7656097 -4.453125 2.7656097 -8.921875q0 -1.734375 -0.390625 -3.453125q-0.328125 -1.390625 -0.890625 -2.671875q-0.359375 -0.84375 -1.4843597 -2.78125l1.1874847 0q1.75 2.328125 2.578125 4.671875q0.71875 2.015625 0.71875 4.234375q0 2.5 -0.96875 4.84375q-0.953125 2.328125 -2.328125 4.078125z" fill-rule="nonzero"></path><path fill="#000000" fill-opacity="0.0" d="m560.0 24.0l56.0 0l0 40.0l-56.0 0z" fill-rule="nonzero"></path><path fill="#000000" d="m583.8041 54.92q-1.375 -1.75 -2.328125 -4.078125q-0.953125 -2.34375 -0.953125 -4.84375q0 -2.21875 0.703125 -4.234375q0.84375 -2.34375 2.578125 -4.671875l1.203125 0q-1.125 1.921875 -1.484375 2.75q-0.5625 1.28125 -0.890625 2.671875q-0.40625 1.734375 -0.40625 3.484375q0 4.46875 2.78125 8.921875l-1.203125 0zm4.5720825 -4.0l-1.546875 0l0 -13.59375l1.65625 0l0 4.84375q1.0625 -1.328125 2.703125 -1.328125q0.90625 0 1.71875 0.375q0.8125 0.359375 1.328125 1.03125q0.53125 0.65625 0.828125 1.59375q0.296875 0.9375 0.296875 2.0q0 2.53125 -1.25 3.921875q-1.25 1.375 -3.0 1.375q-1.75 0 -2.734375 -1.453125l0 1.234375zm-0.015625 -5.0q0 1.765625 0.46875 2.5625q0.796875 1.28125 2.140625 1.28125q1.09375 0 1.890625 -0.9375q0.796875 -0.953125 0.796875 -2.84375q0 -1.921875 -0.765625 -2.84375q-0.765625 -0.921875 -1.84375 -0.921875q-1.09375 0 -1.890625 0.953125q-0.796875 0.953125 -0.796875 2.75zm9.938232 9.0l-1.1875 0q2.765625 -4.453125 2.765625 -8.921875q0 -1.734375 -0.390625 -3.453125q-0.328125 -1.390625 -0.890625 -2.671875q-0.359375 -0.84375 -1.484375 -2.78125l1.1875 0q1.75 2.328125 2.578125 4.671875q0.71875 2.015625 0.71875 4.234375q0 2.5 -0.96875 4.84375q-0.953125 2.328125 -2.328125 4.078125z" fill-rule="nonzero"></path><path fill="#000000" fill-opacity="0.0" d="m872.0 40.0l64.0 0l0 32.0l-64.0 0z" fill-rule="nonzero"></path><path fill="#000000" fill-opacity="0.0" d="m888.0 24.0l56.0 0l0 40.0l-56.0 0z" fill-rule="nonzero"></path><path fill="#000000" d="m911.8041 54.92q-1.375 -1.75 -2.328125 -4.078125q-0.953125 -2.34375 -0.953125 -4.84375q0 -2.21875 0.703125 -4.234375q0.84375 -2.34375 2.578125 -4.671875l1.203125 0q-1.125 1.921875 -1.484375 2.75q-0.5625 1.28125 -0.890625 2.671875q-0.40625 1.734375 -0.40625 3.484375q0 4.46875 2.78125 8.921875l-1.203125 0zm9.4627075 -7.609375l1.640625 0.21875q-0.265625 1.6875 -1.375 2.65625q-1.109375 0.953125 -2.734375 0.953125q-2.015625 0 -3.25 -1.3125q-1.21875 -1.328125 -1.21875 -3.796875q0 -1.59375 0.515625 -2.78125q0.53125 -1.203125 1.609375 -1.796875q1.09375 -0.609375 2.359375 -0.609375q1.609375 0 2.625 0.8125q1.015625 0.8125 1.3125 2.3125l-1.625 0.25q-0.234375 -1.0 -0.828125 -1.5q-0.59375 -0.5 -1.421875 -0.5q-1.265625 0 -2.0625 0.90625q-0.78125 0.90625 -0.78125 2.859375q0 1.984375 0.765625 2.890625q0.765625 0.890625 1.984375 0.890625q0.984375 0 1.640625 -0.59375q0.65625 -0.609375 0.84375 -1.859375zm3.984375 7.609375l-1.1875 0q2.765625 -4.453125 2.765625 -8.921875q0 -1.734375 -0.390625 -3.453125q-0.328125 -1.390625 -0.890625 -2.671875q-0.359375 -0.84375 -1.484375 -2.78125l1.1875 0q1.75 2.328125 2.578125 4.671875q0.71875 2.015625 0.71875 4.234375q0 2.5 -0.96875 4.84375q-0.953125 2.328125 -2.328125 4.078125z" fill-rule="nonzero"></path></g></svg>

